<svg width="60" height="18" viewBox="0 0 60 18" fill="none" xmlns="http://www.w3.org/2000/svg">
<g clip-path="url(#clip0_520_3244)">
<path fill-rule="evenodd" clip-rule="evenodd" d="M37.0992 14.0765C33.624 16.6349 28.5871 17.9999 24.2503 17.9999C18.1695 17.9999 12.6952 15.7535 8.55372 12.0173C8.22833 11.7235 8.51988 11.3231 8.91034 11.5519C13.3798 14.1493 18.9062 15.7119 24.6148 15.7119C28.4647 15.7119 32.6999 14.9163 36.5942 13.2653C37.1825 13.0157 37.6744 13.6501 37.0992 14.0765Z" fill="#FF9900"/>
<path fill-rule="evenodd" clip-rule="evenodd" d="M38.5438 12.4255C38.1013 11.8587 35.6075 12.1577 34.4882 12.2903C34.1472 12.3319 34.0952 12.0355 34.4023 11.8223C36.3885 10.4261 39.6475 10.8291 40.0276 11.2971C40.4076 11.7677 39.9287 15.0307 38.0622 16.5882C37.7759 16.8274 37.5026 16.7 37.6301 16.3828C38.0492 15.3375 38.9889 12.9949 38.5438 12.4255Z" fill="#FF9900"/>
<path fill-rule="evenodd" clip-rule="evenodd" d="M34.5663 1.96555V0.60834C34.5663 0.402938 34.7225 0.265137 34.9099 0.265137H40.9933C41.1886 0.265137 41.3447 0.405538 41.3447 0.60834V1.77055C41.3421 1.96555 41.1781 2.22036 40.8866 2.62336L37.7343 7.11881C38.9056 7.09021 40.1421 7.26441 41.2042 7.86242C41.4437 7.99762 41.5087 8.19522 41.527 8.39022V9.83844C41.527 10.036 41.3083 10.2674 41.0792 10.1478C39.2076 9.16763 36.7217 9.06103 34.6522 10.1582C34.4414 10.2726 34.2201 10.0438 34.2201 9.84624V8.47082C34.2201 8.24982 34.2227 7.87282 34.444 7.53741L38.0961 2.30616H34.9177C34.7225 2.30616 34.5663 2.16836 34.5663 1.96555Z" fill="black"/>
<path fill-rule="evenodd" clip-rule="evenodd" d="M12.3751 10.434H10.5243C10.3473 10.421 10.2067 10.2884 10.1937 10.1194V0.631872C10.1937 0.44207 10.3525 0.291267 10.5503 0.291267H12.2762C12.4558 0.299062 12.599 0.436868 12.612 0.608469V1.84868H12.6458C13.0962 0.65007 13.9422 0.0910645 15.0823 0.0910645C16.2407 0.0910645 16.9643 0.65007 17.485 1.84868C17.9327 0.65007 18.9505 0.0910645 20.0412 0.0910645C20.8169 0.0910645 21.6655 0.410868 22.1835 1.12847C22.7692 1.92668 22.6495 3.08629 22.6495 4.10291L22.6469 10.0908C22.6469 10.2806 22.4881 10.434 22.2903 10.434H20.4421C20.2573 10.421 20.1089 10.2728 20.1089 10.0908V5.06231C20.1089 4.66191 20.1453 3.6635 20.0568 3.2839C19.9189 2.64689 19.505 2.46749 18.9687 2.46749C18.521 2.46749 18.0524 2.76649 17.8624 3.2449C17.6724 3.7233 17.6906 4.52411 17.6906 5.06231V10.0908C17.6906 10.2806 17.5318 10.434 17.334 10.434H15.4858C15.2984 10.421 15.1526 10.2728 15.1526 10.0908L15.15 5.06231C15.15 4.0041 15.3244 2.44669 14.0099 2.44669C12.6797 2.44669 12.7317 3.9651 12.7317 5.06231V10.0908C12.7317 10.2806 12.5729 10.434 12.3751 10.434" fill="black"/>
<path fill-rule="evenodd" clip-rule="evenodd" d="M46.5822 0.0910645C49.3284 0.0910645 50.8148 2.44669 50.8148 5.44192C50.8148 8.33575 49.1722 10.6316 46.5822 10.6316C43.8854 10.6316 42.4172 8.27594 42.4172 5.34052C42.4172 2.38689 43.9036 0.0910645 46.5822 0.0910645ZM46.5978 2.02808C45.2338 2.02808 45.1479 3.8845 45.1479 5.04151C45.1479 6.20113 45.1296 8.67635 46.5822 8.67635C48.0165 8.67635 48.0841 6.67953 48.0841 5.46272C48.0841 4.66191 48.0503 3.7051 47.8082 2.94589C47.6 2.28549 47.1861 2.02808 46.5978 2.02808Z" fill="black"/>
<path fill-rule="evenodd" clip-rule="evenodd" d="M54.3758 10.434H52.5328C52.348 10.421 52.1996 10.2728 52.1996 10.0908L52.197 0.60067C52.2126 0.426468 52.3662 0.291267 52.5536 0.291267H54.2691C54.4305 0.299062 54.5632 0.408268 54.5997 0.55647V2.00728H54.6335C55.1515 0.709871 55.8778 0.0910645 57.1559 0.0910645C57.9863 0.0910645 58.7958 0.390068 59.3164 1.20908C59.8006 1.96828 59.8006 3.2449 59.8006 4.1627V10.135C59.7798 10.3014 59.6262 10.434 59.444 10.434H57.588C57.4188 10.421 57.2782 10.2962 57.26 10.135V4.98171C57.26 3.9443 57.3798 2.42589 56.1016 2.42589C55.6513 2.42589 55.2374 2.72749 55.0318 3.18509C54.7715 3.7649 54.7376 4.34211 54.7376 4.98171V10.0908C54.735 10.2806 54.5736 10.434 54.3758 10.434" fill="black"/>
<path fill-rule="evenodd" clip-rule="evenodd" d="M29.7169 5.90206C29.7169 6.62227 29.7351 7.22288 29.3707 7.86248C29.0765 8.38249 28.608 8.70229 28.09 8.70229C27.3793 8.70229 26.9628 8.16149 26.9628 7.36328C26.9628 5.78766 28.3763 5.50166 29.7169 5.50166V5.90206ZM31.5833 10.4079C31.461 10.5171 31.2839 10.5249 31.146 10.4521C30.5317 9.94251 30.4197 9.7059 30.0839 9.2197C29.0687 10.2545 28.3477 10.5639 27.0331 10.5639C25.4739 10.5639 24.2634 9.6045 24.2634 7.68308C24.2634 6.18287 25.0756 5.16106 26.2366 4.66185C27.2414 4.21984 28.6444 4.14185 29.7169 4.01964V3.78044C29.7169 3.34104 29.7507 2.82103 29.4904 2.44143C29.2666 2.10082 28.8344 1.96042 28.4518 1.96042C27.7464 1.96042 27.119 2.32182 26.9654 3.07063C26.9342 3.23704 26.8118 3.40084 26.6426 3.40864L24.8491 3.21623C24.6981 3.18244 24.5289 3.06023 24.5732 2.82883C24.9845 0.655209 26.9524 0 28.7121 0C29.6128 0 30.7894 0.239203 31.5 0.92041C32.4007 1.76022 32.3148 2.88083 32.3148 4.10024V6.98107C32.3148 7.84689 32.674 8.22649 33.0124 8.69449C33.1295 8.86089 33.1556 9.0611 33.0046 9.1859C32.6271 9.5005 31.9555 10.0855 31.5859 10.4131L31.5833 10.4079" fill="black"/>
<path fill-rule="evenodd" clip-rule="evenodd" d="M5.45346 5.90231C5.45346 6.62251 5.47168 7.22312 5.10725 7.86273C4.8131 8.38273 4.34715 8.70254 3.82653 8.70254C3.11589 8.70254 2.702 8.16173 2.702 7.36352C2.702 5.78791 4.11548 5.5019 5.45346 5.5019V5.90231ZM7.31987 10.4082C7.19753 10.5174 7.02052 10.5252 6.88256 10.4524C6.26823 9.94275 6.1589 9.70615 5.8205 9.21994C4.80529 10.2548 4.08684 10.5642 2.76968 10.5642C1.21304 10.5642 0 9.60474 0 7.68333C0 6.18311 0.814765 5.1613 1.97314 4.66209C2.97793 4.22009 4.38099 4.14209 5.45346 4.01989V3.78068C5.45346 3.34128 5.4873 2.82127 5.2296 2.44167C5.00313 2.10107 4.57102 1.96066 4.19097 1.96066C3.48553 1.96066 2.85558 2.32207 2.702 3.07088C2.67076 3.23728 2.54842 3.40108 2.38182 3.40888L0.585694 3.21648C0.434715 3.18268 0.268117 3.06048 0.309767 2.82908C0.723657 0.655453 2.68899 0.000244141 4.44867 0.000244141C5.34934 0.000244141 6.52593 0.239447 7.23658 0.920654C8.13724 1.76046 8.05134 2.88107 8.05134 4.10049V6.98132C8.05134 7.84713 8.41057 8.22673 8.74897 8.69474C8.86871 8.86114 8.89474 9.06134 8.74376 9.18614C8.36631 9.50074 7.69472 10.0858 7.32508 10.4134L7.31988 10.4081" fill="black"/>
</g>
<defs>
<clipPath id="clip0_520_3244">
<rect width="59.8007" height="18" fill="white"/>
</clipPath>
</defs>
</svg>
