<svg width="80" height="80" viewBox="0 0 80 80" fill="none" xmlns="http://www.w3.org/2000/svg">
<g opacity="0.35">
<path d="M63.3333 26.6667H40V16.6667C40 12.9833 37.0167 10 33.3333 10H13.3333C9.64999 10 6.66666 12.9833 6.66666 16.6667V63.3333C6.66666 67.0167 9.64999 70 13.3333 70H40V66.6667H63.3333C67.0167 66.6667 70 63.6833 70 60V33.3333C70 29.65 67.0167 26.6667 63.3333 26.6667Z" fill="white"/>
<path d="M63.3333 26.6667H40V16.6667C40 12.9833 37.0167 10 33.3333 10H13.3333C9.64999 10 6.66666 12.9833 6.66666 16.6667V63.3333C6.66666 67.0167 9.64999 70 13.3333 70H40V66.6667H63.3333C67.0167 66.6667 70 63.6833 70 60V33.3333C70 29.65 67.0167 26.6667 63.3333 26.6667Z" fill="black" fill-opacity="0.1"/>
</g>
<path d="M20 16.6667H13.3333V23.3334H20V16.6667Z" fill="white"/>
<path d="M20 16.6667H13.3333V23.3334H20V16.6667Z" fill="black" fill-opacity="0.1"/>
<path d="M33.3333 16.6667H26.6667V23.3334H33.3333V16.6667Z" fill="white"/>
<path d="M33.3333 16.6667H26.6667V23.3334H33.3333V16.6667Z" fill="black" fill-opacity="0.1"/>
<path d="M20 30H13.3333V36.6667H20V30Z" fill="white"/>
<path d="M20 30H13.3333V36.6667H20V30Z" fill="black" fill-opacity="0.1"/>
<path d="M33.3333 30H26.6667V36.6667H33.3333V30Z" fill="white"/>
<path d="M33.3333 30H26.6667V36.6667H33.3333V30Z" fill="black" fill-opacity="0.1"/>
<path d="M20 43.3333H13.3333V49.9999H20V43.3333Z" fill="white"/>
<path d="M20 43.3333H13.3333V49.9999H20V43.3333Z" fill="black" fill-opacity="0.1"/>
<path d="M33.3333 43.3333H26.6667V49.9999H33.3333V43.3333Z" fill="white"/>
<path d="M33.3333 43.3333H26.6667V49.9999H33.3333V43.3333Z" fill="black" fill-opacity="0.1"/>
<path d="M20 56.6667H13.3333V63.3334H20V56.6667Z" fill="white"/>
<path d="M20 56.6667H13.3333V63.3334H20V56.6667Z" fill="black" fill-opacity="0.1"/>
<path d="M33.3333 56.6667H26.6667V63.3334H33.3333V56.6667Z" fill="white"/>
<path d="M33.3333 56.6667H26.6667V63.3334H33.3333V56.6667Z" fill="black" fill-opacity="0.1"/>
<path d="M66.6667 23.3333H40V69.9999H66.6667C70.35 69.9999 73.3333 67.0166 73.3333 63.3333V29.9999C73.3333 26.3166 70.35 23.3333 66.6667 23.3333ZM53.3333 49.9999H46.6667V43.3333H53.3333V49.9999ZM53.3333 36.6666H46.6667V29.9999H53.3333V36.6666ZM66.6667 49.9999H60V43.3333H66.6667V49.9999ZM53.3333 63.3333H46.6667V56.6666H53.3333V63.3333ZM66.6667 63.3333H60V56.6666H66.6667V63.3333ZM66.6667 36.6666H60V29.9999H66.6667V36.6666Z" fill="white"/>
<path d="M66.6667 23.3333H40V69.9999H66.6667C70.35 69.9999 73.3333 67.0166 73.3333 63.3333V29.9999C73.3333 26.3166 70.35 23.3333 66.6667 23.3333ZM53.3333 49.9999H46.6667V43.3333H53.3333V49.9999ZM53.3333 36.6666H46.6667V29.9999H53.3333V36.6666ZM66.6667 49.9999H60V43.3333H66.6667V49.9999ZM53.3333 63.3333H46.6667V56.6666H53.3333V63.3333ZM66.6667 63.3333H60V56.6666H66.6667V63.3333ZM66.6667 36.6666H60V29.9999H66.6667V36.6666Z" fill="black" fill-opacity="0.1"/>
</svg>
