<svg width="71" height="19" viewBox="0 0 71 19" fill="none" xmlns="http://www.w3.org/2000/svg">
<g clip-path="url(#clip0_520_3385)">
<path d="M6.66482 5.23145C7.14955 5.23145 7.61793 5.27608 8.07042 5.36475C8.5226 5.45372 8.94298 5.58701 9.3308 5.76465V9.30303C8.89452 9.01213 8.49035 8.81035 8.11903 8.69708C7.74711 8.58426 7.33514 8.52754 6.88296 8.52754C6.43047 8.52754 6.00214 8.60842 5.59842 8.76968C5.1944 8.93157 4.84724 9.15766 4.55633 9.44841C4.26558 9.73916 4.03536 10.0827 3.86553 10.4784C3.696 10.8745 3.61116 11.3067 3.61116 11.775C3.61116 12.2275 3.696 12.6517 3.86553 13.0474C4.03536 13.4436 4.26924 13.7866 4.56841 14.0774C4.86726 14.3682 5.21442 14.5947 5.61065 14.7561C6.00627 14.9176 6.43047 14.9984 6.88296 14.9984C7.35134 14.9984 7.77554 14.9418 8.15526 14.8287C8.53467 14.7159 8.92662 14.5136 9.3308 14.2228V17.7854C8.95888 17.9472 8.5469 18.072 8.09473 18.161C7.64224 18.2497 7.16546 18.2943 6.66482 18.2943C5.74395 18.2943 4.87934 18.1284 4.07159 17.7975C3.26354 17.4665 2.55684 17.0099 1.95103 16.4282C1.34522 15.8464 0.868434 15.1558 0.521121 14.356C0.173503 13.5564 0 12.6959 0 11.775C0 10.854 0.173503 9.99368 0.521121 9.19389C0.868434 8.39409 1.34522 7.69962 1.95103 7.10972C2.55684 6.52011 3.26354 6.05953 4.07159 5.72826C4.87934 5.39731 5.74395 5.23145 6.66482 5.23145Z" fill="#F1511B"/>
<path d="M15.045 10.4905H20.7163C20.6351 9.86039 20.3444 9.33545 19.8438 8.91506C19.3428 8.49514 18.7288 8.2851 18.0018 8.2851C17.2747 8.2851 16.6527 8.47893 16.1358 8.86676C15.6185 9.25442 15.255 9.79603 15.045 10.4905ZM11.4341 11.775C11.4341 10.854 11.6036 9.99368 11.943 9.19389C12.2823 8.39409 12.7465 7.70344 13.3365 7.12164C13.9261 6.54014 14.6211 6.0797 15.4209 5.74034C16.2204 5.40098 17.0808 5.23145 18.0018 5.23145C20.0698 5.23145 21.6936 5.95847 22.8731 7.41254C24.0524 8.85071 24.5292 10.6602 24.303 12.8412H14.9723C15.1501 13.6167 15.5094 14.2191 16.051 14.6467C16.5921 15.0751 17.2504 15.2891 18.0259 15.2891C19.2538 15.2891 20.102 14.8692 20.5707 14.0288H24.1576C23.9637 14.7075 23.6809 15.3094 23.3093 15.8344C22.9375 16.3596 22.4853 16.8039 21.9522 17.1674C21.419 17.5309 20.8211 17.8096 20.1588 18.0034C19.4961 18.1974 18.7775 18.2943 18.0018 18.2943C17.0808 18.2943 16.2243 18.1284 15.4329 17.7975C14.641 17.4665 13.9461 17.006 13.3486 16.416C12.7507 15.8265 12.2823 15.1358 11.943 14.3439C11.6036 13.5524 11.4341 12.6959 11.4341 11.775Z" fill="#F1511B"/>
<path d="M27.0342 18.0036V5.52235H30.8149V6.75827C31.1864 6.28989 31.6711 5.91827 32.2691 5.64357C32.8666 5.36902 33.5129 5.23145 34.2078 5.23145C35.6136 5.23145 36.724 5.65183 37.5402 6.49167C38.3558 7.33198 38.7642 8.47893 38.7642 9.93315V18.0036H34.959V10.9752C34.959 10.2808 34.7731 9.71929 34.4018 9.29096C34.0299 8.86294 33.5293 8.64861 32.8992 8.64861C32.2691 8.64861 31.7638 8.86676 31.3844 9.30303C31.0045 9.73916 30.8149 10.2967 30.8149 10.9752V18.0036H27.0342Z" fill="#F1511B"/>
<path d="M42.9568 5.52228V2.15356H46.7375V5.52228H49.452V8.52748H46.7375V18.0035H42.9568V8.52748H40.7755V5.52228H42.9568Z" fill="#F1511B"/>
<path d="M51.3032 5.52222H55.0839V18.0034H51.3032V5.52222Z" fill="#F1511B"/>
<path d="M58.8861 0.333252H62.6668V18.0035H58.8861V0.333252Z" fill="#F1511B"/>
<path d="M66.469 5.52222H70.2497V18.0034H66.469V5.52222Z" fill="#F1511B"/>
<path d="M70.2497 3.33845H66.469V0.333252H70.2497V3.33845Z" fill="#F1511B"/>
<path d="M51.3032 3.62859C53.385 3.54757 55.244 2.71017 55.5909 0.333252H51.3032V3.62859Z" fill="#F1511B"/>
</g>
<defs>
<clipPath id="clip0_520_3385">
<rect width="70.2803" height="18" fill="white" transform="translate(0 0.333252)"/>
</clipPath>
</defs>
</svg>
