<svg width="74" height="60" viewBox="0 0 74 60" fill="none" xmlns="http://www.w3.org/2000/svg">
<g opacity="0.35">
<path d="M57 53.3333H10.3334C4.81004 53.3333 0.333374 48.8567 0.333374 43.3333V10C0.333374 4.47667 4.81004 0 10.3334 0H57C62.5234 0 67 4.47667 67 10V43.3333C67 48.8567 62.5234 53.3333 57 53.3333Z" fill="white"/>
<path d="M57 53.3333H10.3334C4.81004 53.3333 0.333374 48.8567 0.333374 43.3333V10C0.333374 4.47667 4.81004 0 10.3334 0H57C62.5234 0 67 4.47667 67 10V43.3333C67 48.8567 62.5234 53.3333 57 53.3333Z" fill="black" fill-opacity="0.1"/>
</g>
<path d="M66.5335 7.1333C66.8068 8.04663 67.0001 8.99663 67.0001 9.99997V43.3333C67.0001 48.8566 62.5235 53.3333 57.0001 53.3333H10.3335C9.33013 53.3333 8.38013 53.14 7.4668 52.8666C8.7068 56.9833 12.4801 60 17.0001 60H63.6668C69.1901 60 73.6668 55.5233 73.6668 50V16.6666C73.6668 12.1466 70.6501 8.3733 66.5335 7.1333Z" fill="white"/>
<path d="M66.5335 7.1333C66.8068 8.04663 67.0001 8.99663 67.0001 9.99997V43.3333C67.0001 48.8566 62.5235 53.3333 57.0001 53.3333H10.3335C9.33013 53.3333 8.38013 53.14 7.4668 52.8666C8.7068 56.9833 12.4801 60 17.0001 60H63.6668C69.1901 60 73.6668 55.5233 73.6668 50V16.6666C73.6668 12.1466 70.6501 8.3733 66.5335 7.1333Z" fill="black" fill-opacity="0.1"/>
<path d="M67 10H0.333374V20H67V10Z" fill="white"/>
<path d="M67 10H0.333374V20H67V10Z" fill="black" fill-opacity="0.1"/>
</svg>
