<svg width="232" height="232" viewBox="0 0 232 232" fill="none" xmlns="http://www.w3.org/2000/svg">
<g opacity="0.1">
<circle r="110" transform="matrix(-1 0 0 1 116 116)" stroke="white" stroke-width="12" stroke-linejoin="round"/>
<circle r="110" transform="matrix(-1 0 0 1 116 116)" stroke="black" stroke-opacity="0.2" stroke-width="12" stroke-linejoin="round"/>
</g>
<g filter="url(#filter0_ii_737_6189)">
<path d="M226 116C226 176.751 176.751 226 116 226C55.2487 226 6 176.751 6 116C6 55.2487 55.2487 6 116 6" stroke="white" stroke-width="12" stroke-linecap="round" stroke-linejoin="round"/>
<path d="M226 116C226 176.751 176.751 226 116 226C55.2487 226 6 176.751 6 116C6 55.2487 55.2487 6 116 6" stroke="#FF0000" stroke-width="12" stroke-linecap="round" stroke-linejoin="round"/>
</g>
<g opacity="0.1">
<circle r="90" transform="matrix(-1 0 0 1 116 116)" stroke="white" stroke-width="12"/>
<circle r="90" transform="matrix(-1 0 0 1 116 116)" stroke="black" stroke-opacity="0.2" stroke-width="12"/>
</g>
<g filter="url(#filter1_ii_737_6189)">
<path d="M116 206C66.2944 206 26 165.706 26 116C26 66.2944 66.2944 26 116 26" stroke="white" stroke-width="12" stroke-linecap="round"/>
<path d="M116 206C66.2944 206 26 165.706 26 116C26 66.2944 66.2944 26 116 26" stroke="black" stroke-opacity="0.6" stroke-width="12" stroke-linecap="round"/>
</g>
<g opacity="0.1">
<circle r="70" transform="matrix(-1 0 0 1 116 116)" stroke="white" stroke-width="12"/>
<circle r="70" transform="matrix(-1 0 0 1 116 116)" stroke="black" stroke-opacity="0.2" stroke-width="12"/>
</g>
<g filter="url(#filter2_ii_737_6189)">
<path d="M116 46C103.793 46 91.7988 49.192 81.2068 55.2593C70.6147 61.3266 61.7934 70.0582 55.6182 80.5877C49.4429 91.1172 46.1284 103.078 46.0037 115.284C45.8789 127.491 48.9482 139.517 54.9069 150.171C60.8656 160.824 69.5066 169.734 79.9724 176.017C90.4382 182.299 102.365 185.736 114.569 185.985C126.773 186.235 138.83 183.289 149.544 177.439C160.258 171.59 169.256 163.04 175.645 152.639" stroke="white" stroke-width="12" stroke-linecap="round"/>
<path d="M116 46C103.793 46 91.7988 49.192 81.2068 55.2593C70.6147 61.3266 61.7934 70.0582 55.6182 80.5877C49.4429 91.1172 46.1284 103.078 46.0037 115.284C45.8789 127.491 48.9482 139.517 54.9069 150.171C60.8656 160.824 69.5066 169.734 79.9724 176.017C90.4382 182.299 102.365 185.736 114.569 185.985C126.773 186.235 138.83 183.289 149.544 177.439C160.258 171.59 169.256 163.04 175.645 152.639" stroke="#2FC26C" stroke-width="12" stroke-linecap="round"/>
</g>
<g opacity="0.1">
<circle r="50" transform="matrix(-1 0 0 1 116 116)" stroke="white" stroke-width="12"/>
<circle r="50" transform="matrix(-1 0 0 1 116 116)" stroke="black" stroke-opacity="0.2" stroke-width="12"/>
</g>
<g filter="url(#filter3_ii_737_6189)">
<path d="M116 66C107.759 66 99.6453 68.0271 92.3815 71.9011C85.1176 75.775 78.9287 81.3756 74.3652 88.2046C69.8018 95.0336 67.0054 102.879 66.2248 111.043C65.4442 119.208 66.7036 127.437 69.8911 135" stroke="white" stroke-width="12" stroke-linecap="round"/>
<path d="M116 66C107.759 66 99.6453 68.0271 92.3815 71.9011C85.1176 75.775 78.9287 81.3756 74.3652 88.2046C69.8018 95.0336 67.0054 102.879 66.2248 111.043C65.4442 119.208 66.7036 127.437 69.8911 135" stroke="#FFB92D" stroke-width="12" stroke-linecap="round"/>
</g>
<g opacity="0.1">
<circle r="30" transform="matrix(-1 0 0 1 116 116)" stroke="white" stroke-width="12"/>
<circle r="30" transform="matrix(-1 0 0 1 116 116)" stroke="black" stroke-opacity="0.2" stroke-width="12"/>
</g>
<g filter="url(#filter4_ii_737_6189)">
<path d="M116 86C111.055 86 106.187 87.2163 101.829 89.5407C97.4706 91.865 93.7572 95.2254 91.0191 99.3228C88.2811 103.42 86.6032 108.128 86.1349 113.026C85.6665 117.925 86.4222 122.862 88.3346 127.4" stroke="white" stroke-width="12" stroke-linecap="round"/>
<path d="M116 86C111.055 86 106.187 87.2163 101.829 89.5407C97.4706 91.865 93.7572 95.2254 91.0191 99.3228C88.2811 103.42 86.6032 108.128 86.1349 113.026C85.6665 117.925 86.4222 122.862 88.3346 127.4" stroke="#2DB9FF" stroke-width="12" stroke-linecap="round"/>
</g>
<defs>
<filter id="filter0_ii_737_6189" x="-4" y="-4" width="240" height="240" filterUnits="userSpaceOnUse" color-interpolation-filters="sRGB">
<feFlood flood-opacity="0" result="BackgroundImageFix"/>
<feBlend mode="normal" in="SourceGraphic" in2="BackgroundImageFix" result="shape"/>
<feColorMatrix in="SourceAlpha" type="matrix" values="0 0 0 0 0 0 0 0 0 0 0 0 0 0 0 0 0 0 127 0" result="hardAlpha"/>
<feOffset dx="4" dy="4"/>
<feGaussianBlur stdDeviation="4"/>
<feComposite in2="hardAlpha" operator="arithmetic" k2="-1" k3="1"/>
<feColorMatrix type="matrix" values="0 0 0 0 0 0 0 0 0 0 0 0 0 0 0 0 0 0 0.16 0"/>
<feBlend mode="normal" in2="shape" result="effect1_innerShadow_737_6189"/>
<feColorMatrix in="SourceAlpha" type="matrix" values="0 0 0 0 0 0 0 0 0 0 0 0 0 0 0 0 0 0 127 0" result="hardAlpha"/>
<feOffset dx="-4" dy="-4"/>
<feGaussianBlur stdDeviation="4"/>
<feComposite in2="hardAlpha" operator="arithmetic" k2="-1" k3="1"/>
<feColorMatrix type="matrix" values="0 0 0 0 1 0 0 0 0 1 0 0 0 0 1 0 0 0 1 0"/>
<feBlend mode="normal" in2="effect1_innerShadow_737_6189" result="effect2_innerShadow_737_6189"/>
</filter>
<filter id="filter1_ii_737_6189" x="16" y="16" width="110" height="200" filterUnits="userSpaceOnUse" color-interpolation-filters="sRGB">
<feFlood flood-opacity="0" result="BackgroundImageFix"/>
<feBlend mode="normal" in="SourceGraphic" in2="BackgroundImageFix" result="shape"/>
<feColorMatrix in="SourceAlpha" type="matrix" values="0 0 0 0 0 0 0 0 0 0 0 0 0 0 0 0 0 0 127 0" result="hardAlpha"/>
<feOffset dx="4" dy="4"/>
<feGaussianBlur stdDeviation="4"/>
<feComposite in2="hardAlpha" operator="arithmetic" k2="-1" k3="1"/>
<feColorMatrix type="matrix" values="0 0 0 0 0 0 0 0 0 0 0 0 0 0 0 0 0 0 0.16 0"/>
<feBlend mode="normal" in2="shape" result="effect1_innerShadow_737_6189"/>
<feColorMatrix in="SourceAlpha" type="matrix" values="0 0 0 0 0 0 0 0 0 0 0 0 0 0 0 0 0 0 127 0" result="hardAlpha"/>
<feOffset dx="-4" dy="-4"/>
<feGaussianBlur stdDeviation="4"/>
<feComposite in2="hardAlpha" operator="arithmetic" k2="-1" k3="1"/>
<feColorMatrix type="matrix" values="0 0 0 0 1 0 0 0 0 1 0 0 0 0 1 0 0 0 1 0"/>
<feBlend mode="normal" in2="effect1_innerShadow_737_6189" result="effect2_innerShadow_737_6189"/>
</filter>
<filter id="filter2_ii_737_6189" x="36" y="36" width="149.646" height="160" filterUnits="userSpaceOnUse" color-interpolation-filters="sRGB">
<feFlood flood-opacity="0" result="BackgroundImageFix"/>
<feBlend mode="normal" in="SourceGraphic" in2="BackgroundImageFix" result="shape"/>
<feColorMatrix in="SourceAlpha" type="matrix" values="0 0 0 0 0 0 0 0 0 0 0 0 0 0 0 0 0 0 127 0" result="hardAlpha"/>
<feOffset dx="4" dy="4"/>
<feGaussianBlur stdDeviation="4"/>
<feComposite in2="hardAlpha" operator="arithmetic" k2="-1" k3="1"/>
<feColorMatrix type="matrix" values="0 0 0 0 0 0 0 0 0 0 0 0 0 0 0 0 0 0 0.16 0"/>
<feBlend mode="normal" in2="shape" result="effect1_innerShadow_737_6189"/>
<feColorMatrix in="SourceAlpha" type="matrix" values="0 0 0 0 0 0 0 0 0 0 0 0 0 0 0 0 0 0 127 0" result="hardAlpha"/>
<feOffset dx="-4" dy="-4"/>
<feGaussianBlur stdDeviation="4"/>
<feComposite in2="hardAlpha" operator="arithmetic" k2="-1" k3="1"/>
<feColorMatrix type="matrix" values="0 0 0 0 1 0 0 0 0 1 0 0 0 0 1 0 0 0 1 0"/>
<feBlend mode="normal" in2="effect1_innerShadow_737_6189" result="effect2_innerShadow_737_6189"/>
</filter>
<filter id="filter3_ii_737_6189" x="56" y="56" width="70" height="89.0016" filterUnits="userSpaceOnUse" color-interpolation-filters="sRGB">
<feFlood flood-opacity="0" result="BackgroundImageFix"/>
<feBlend mode="normal" in="SourceGraphic" in2="BackgroundImageFix" result="shape"/>
<feColorMatrix in="SourceAlpha" type="matrix" values="0 0 0 0 0 0 0 0 0 0 0 0 0 0 0 0 0 0 127 0" result="hardAlpha"/>
<feOffset dx="4" dy="4"/>
<feGaussianBlur stdDeviation="4"/>
<feComposite in2="hardAlpha" operator="arithmetic" k2="-1" k3="1"/>
<feColorMatrix type="matrix" values="0 0 0 0 0 0 0 0 0 0 0 0 0 0 0 0 0 0 0.16 0"/>
<feBlend mode="normal" in2="shape" result="effect1_innerShadow_737_6189"/>
<feColorMatrix in="SourceAlpha" type="matrix" values="0 0 0 0 0 0 0 0 0 0 0 0 0 0 0 0 0 0 127 0" result="hardAlpha"/>
<feOffset dx="-4" dy="-4"/>
<feGaussianBlur stdDeviation="4"/>
<feComposite in2="hardAlpha" operator="arithmetic" k2="-1" k3="1"/>
<feColorMatrix type="matrix" values="0 0 0 0 1 0 0 0 0 1 0 0 0 0 1 0 0 0 1 0"/>
<feBlend mode="normal" in2="effect1_innerShadow_737_6189" result="effect2_innerShadow_737_6189"/>
</filter>
<filter id="filter4_ii_737_6189" x="76" y="76" width="50" height="61.4016" filterUnits="userSpaceOnUse" color-interpolation-filters="sRGB">
<feFlood flood-opacity="0" result="BackgroundImageFix"/>
<feBlend mode="normal" in="SourceGraphic" in2="BackgroundImageFix" result="shape"/>
<feColorMatrix in="SourceAlpha" type="matrix" values="0 0 0 0 0 0 0 0 0 0 0 0 0 0 0 0 0 0 127 0" result="hardAlpha"/>
<feOffset dx="4" dy="4"/>
<feGaussianBlur stdDeviation="4"/>
<feComposite in2="hardAlpha" operator="arithmetic" k2="-1" k3="1"/>
<feColorMatrix type="matrix" values="0 0 0 0 0 0 0 0 0 0 0 0 0 0 0 0 0 0 0.16 0"/>
<feBlend mode="normal" in2="shape" result="effect1_innerShadow_737_6189"/>
<feColorMatrix in="SourceAlpha" type="matrix" values="0 0 0 0 0 0 0 0 0 0 0 0 0 0 0 0 0 0 127 0" result="hardAlpha"/>
<feOffset dx="-4" dy="-4"/>
<feGaussianBlur stdDeviation="4"/>
<feComposite in2="hardAlpha" operator="arithmetic" k2="-1" k3="1"/>
<feColorMatrix type="matrix" values="0 0 0 0 1 0 0 0 0 1 0 0 0 0 1 0 0 0 1 0"/>
<feBlend mode="normal" in2="effect1_innerShadow_737_6189" result="effect2_innerShadow_737_6189"/>
</filter>
</defs>
</svg>
