<svg width="80" height="80" viewBox="0 0 80 80" fill="none" xmlns="http://www.w3.org/2000/svg">
<g opacity="0.35">
<path d="M16.6667 13.333C11.1433 13.333 6.66666 17.8097 6.66666 23.333V30.613C10.5433 31.9897 13.3333 35.653 13.3333 39.9997C13.3333 44.3463 10.5433 48.0097 6.66666 49.3863V56.6663C6.66666 62.1897 11.1433 66.6663 16.6667 66.6663H56.6667V13.333H16.6667Z" fill="white"/>
<path d="M16.6667 13.333C11.1433 13.333 6.66666 17.8097 6.66666 23.333V30.613C10.5433 31.9897 13.3333 35.653 13.3333 39.9997C13.3333 44.3463 10.5433 48.0097 6.66666 49.3863V56.6663C6.66666 62.1897 11.1433 66.6663 16.6667 66.6663H56.6667V13.333H16.6667Z" fill="black" fill-opacity="0.1"/>
</g>
<path d="M73.3333 56.6663V49.3863C69.4567 48.0097 66.6667 44.3463 66.6667 39.9997C66.6667 35.653 69.4567 31.9897 73.3333 30.613V23.333C73.3333 17.8097 68.8567 13.333 63.3333 13.333H56.6667V66.6663H63.3333C68.8567 66.6663 73.3333 62.1897 73.3333 56.6663Z" fill="white"/>
<path d="M73.3333 56.6663V49.3863C69.4567 48.0097 66.6667 44.3463 66.6667 39.9997C66.6667 35.653 69.4567 31.9897 73.3333 30.613V23.333C73.3333 17.8097 68.8567 13.333 63.3333 13.333H56.6667V66.6663H63.3333C68.8567 66.6663 73.3333 62.1897 73.3333 56.6663Z" fill="black" fill-opacity="0.1"/>
</svg>
