<svg width="4" height="18" viewBox="0 0 4 18" fill="none" xmlns="http://www.w3.org/2000/svg">
<path d="M2 0.9375C1.24375 0.9375 0.625 1.55625 0.625 2.3125C0.625 3.06875 1.24375 3.6875 2 3.6875C2.75625 3.6875 3.375 3.06875 3.375 2.3125C3.375 1.55625 2.75625 0.9375 2 0.9375ZM2 14.6875C1.24375 14.6875 0.625 15.3063 0.625 16.0625C0.625 16.8188 1.24375 17.4375 2 17.4375C2.75625 17.4375 3.375 16.8188 3.375 16.0625C3.375 15.3063 2.75625 14.6875 2 14.6875ZM2 7.8125C1.24375 7.8125 0.625 8.43125 0.625 9.1875C0.625 9.94375 1.24375 10.5625 2 10.5625C2.75625 10.5625 3.375 9.94375 3.375 9.1875C3.375 8.43125 2.75625 7.8125 2 7.8125Z" fill="white"/>
<path d="M2 0.9375C1.24375 0.9375 0.625 1.55625 0.625 2.3125C0.625 3.06875 1.24375 3.6875 2 3.6875C2.75625 3.6875 3.375 3.06875 3.375 2.3125C3.375 1.55625 2.75625 0.9375 2 0.9375ZM2 14.6875C1.24375 14.6875 0.625 15.3063 0.625 16.0625C0.625 16.8188 1.24375 17.4375 2 17.4375C2.75625 17.4375 3.375 16.8188 3.375 16.0625C3.375 15.3063 2.75625 14.6875 2 14.6875ZM2 7.8125C1.24375 7.8125 0.625 8.43125 0.625 9.1875C0.625 9.94375 1.24375 10.5625 2 10.5625C2.75625 10.5625 3.375 9.94375 3.375 9.1875C3.375 8.43125 2.75625 7.8125 2 7.8125Z" fill="black" fill-opacity="0.4"/>
</svg>
