<svg width="94" height="18" viewBox="0 0 94 18" fill="none" xmlns="http://www.w3.org/2000/svg">
<g clip-path="url(#clip0_520_3291)">
<path d="M82.5032 9.0763C82.021 8.75824 81.4898 8.5321 80.9869 8.24939C80.6607 8.06562 80.3132 7.90302 80.0301 7.66979C79.548 7.27401 79.6472 6.49657 80.1507 6.1573C80.8734 5.6767 82.0707 5.94522 82.1983 6.9277C82.1983 6.94886 82.2196 6.96304 82.2409 6.96304H83.3323C83.3607 6.96304 83.382 6.94182 83.3749 6.91357C83.3181 6.23502 83.0558 5.66961 82.5741 5.30914C82.1132 4.96282 81.589 4.77905 81.0289 4.77905C78.145 4.77905 77.8827 7.8253 79.4345 8.78655C79.6118 8.89962 81.1352 9.66293 81.6741 9.99511C82.2125 10.3273 82.3827 10.9352 82.1487 11.4158C81.936 11.854 81.3834 12.1579 80.8309 12.1226C80.2281 12.0872 79.7607 11.7621 79.5976 11.2532C79.5692 11.1614 79.555 10.9846 79.555 10.9069C79.555 10.8857 79.5338 10.8645 79.5125 10.8645H78.3294C78.3081 10.8645 78.2869 10.8857 78.2869 10.9069C78.2869 11.7621 78.4996 12.2356 79.0805 12.6668C79.626 13.0767 80.221 13.2464 80.838 13.2464C82.4536 13.2464 83.2898 12.3346 83.4594 11.3875C83.6083 10.4616 83.3323 9.62759 82.5032 9.0763Z" fill="#161616"/>
<path d="M31.1217 4.93457H30.5974H30.0234C30.0021 4.93457 29.9879 4.9487 29.9809 4.96284L29.0101 8.15751C28.9959 8.19994 28.9393 8.19994 28.9251 8.15751L27.9543 4.96284C27.9472 4.94163 27.933 4.93457 27.9117 4.93457H27.3378H26.8134H26.1048C26.0835 4.93457 26.0623 4.95577 26.0623 4.97697V13.1333C26.0623 13.1545 26.0835 13.1757 26.1048 13.1757H27.2882C27.3094 13.1757 27.3307 13.1545 27.3307 13.1333V6.93476C27.3307 6.88529 27.4016 6.87825 27.4157 6.92064L28.3936 10.1365L28.4644 10.3627C28.4715 10.3839 28.4857 10.391 28.507 10.391H29.414C29.4352 10.391 29.4494 10.3768 29.4565 10.3627L29.5274 10.1365L30.5053 6.92064C30.5194 6.87116 30.5903 6.88529 30.5903 6.93476V13.1333C30.5903 13.1545 30.6116 13.1757 30.6328 13.1757H31.8162C31.8374 13.1757 31.8587 13.1545 31.8587 13.1333V4.97697C31.8587 4.95577 31.8374 4.93457 31.8162 4.93457H31.1217Z" fill="#161616"/>
<path d="M64.3839 4.93457C64.3627 4.93457 64.3485 4.9487 64.3414 4.96284L63.371 8.15751C63.3568 8.19994 63.3001 8.19994 63.2859 8.15751L62.315 4.96284C62.3079 4.94163 62.2938 4.93457 62.2725 4.93457H60.4725C60.4512 4.93457 60.4299 4.95577 60.4299 4.97697V13.1333C60.4299 13.1545 60.4512 13.1757 60.4725 13.1757H61.6561C61.6774 13.1757 61.6987 13.1545 61.6987 13.1333V6.93476C61.6987 6.88529 61.7696 6.87825 61.7837 6.92064L62.7612 10.1365L62.8321 10.3627C62.8392 10.3839 62.8534 10.391 62.8747 10.391H63.7818C63.803 10.391 63.8172 10.3768 63.8243 10.3627L63.8952 10.1365L64.8732 6.92064C64.8874 6.87116 64.9583 6.88529 64.9583 6.93476V13.1333C64.9583 13.1545 64.9796 13.1757 65.0008 13.1757H66.1839C66.2052 13.1757 66.2265 13.1545 66.2265 13.1333V4.97697C66.2265 4.95577 66.2052 4.93457 66.1839 4.93457H64.3839Z" fill="#161616"/>
<path d="M49.1208 4.93457H46.917H45.7336H43.5298C43.5086 4.93457 43.4873 4.95577 43.4873 4.97697V5.99473C43.4873 6.01595 43.5086 6.03716 43.5298 6.03716H45.6911V13.1333C45.6911 13.1545 45.7123 13.1757 45.7336 13.1757H46.917C46.9382 13.1757 46.9595 13.1545 46.9595 13.1333V6.03716H49.1208C49.142 6.03716 49.1632 6.01595 49.1632 5.99473V4.97697C49.1632 4.95577 49.1491 4.93457 49.1208 4.93457Z" fill="#161616"/>
<path d="M56.1005 13.1756H57.1772C57.2056 13.1756 57.2268 13.1474 57.2197 13.1191L54.9948 4.93452C54.9877 4.91332 54.9736 4.90625 54.9523 4.90625H54.5414H53.8186H53.4076C53.3863 4.90625 53.3722 4.92039 53.3651 4.93452L51.14 13.1191C51.133 13.1474 51.1542 13.1756 51.1826 13.1756H52.2596C52.2809 13.1756 52.2951 13.1615 52.3022 13.1474L52.947 10.7655C52.9541 10.7443 52.9682 10.7372 52.9895 10.7372H55.3706C55.3919 10.7372 55.4061 10.7514 55.4132 10.7655L56.0579 13.1474C56.065 13.1615 56.0863 13.1756 56.1005 13.1756ZM53.2729 9.57105L54.1375 6.38341C54.1516 6.34103 54.2083 6.34103 54.2225 6.38341L55.087 9.57105C55.0941 9.5993 55.0728 9.62756 55.0445 9.62756H53.3155C53.2871 9.62756 53.2659 9.5993 53.2729 9.57105Z" fill="#161616"/>
<path d="M74.4678 13.1756H75.5446C75.5729 13.1756 75.5942 13.1474 75.5871 13.1191L73.3622 4.93452C73.3551 4.91332 73.3409 4.90625 73.3197 4.90625H72.9089H72.1862H71.7749C71.7537 4.90625 71.7395 4.92039 71.7324 4.93452L69.5075 13.1191C69.5004 13.1474 69.5217 13.1756 69.55 13.1756H70.6273C70.6486 13.1756 70.6628 13.1615 70.6698 13.1474L71.3146 10.7655C71.3217 10.7443 71.3358 10.7372 71.3571 10.7372H73.738C73.7593 10.7372 73.7735 10.7514 73.7806 10.7655L74.4253 13.1474C74.4324 13.1615 74.4466 13.1756 74.4678 13.1756ZM71.6402 9.57105L72.5048 6.38341C72.5189 6.34103 72.5757 6.34103 72.5898 6.38341L73.4544 9.57105C73.4615 9.5993 73.4402 9.62756 73.4118 9.62756H71.6828C71.6544 9.62756 71.6331 9.5993 71.6402 9.57105Z" fill="#161616"/>
<path d="M36.6632 11.9671V9.43679C36.6632 9.41563 36.6844 9.39441 36.7057 9.39441H39.859C39.8803 9.39441 39.9015 9.37319 39.9015 9.35197V8.33421C39.9015 8.31305 39.8803 8.29183 39.859 8.29183H36.7057C36.6844 8.29183 36.6632 8.27061 36.6632 8.24939V6.08666C36.6632 6.06545 36.6844 6.04423 36.7057 6.04423H40.2913C40.3125 6.04423 40.3338 6.02301 40.3338 6.00185V4.98406C40.3338 4.96286 40.3125 4.94165 40.2913 4.94165H36.6632H35.4373C35.416 4.94165 35.3948 4.96286 35.3948 4.98406V6.04423V8.29886V9.4015V12.0166V13.1333C35.3948 13.1545 35.416 13.1757 35.4373 13.1757H36.6632H40.4401C40.4613 13.1757 40.4826 13.1545 40.4826 13.1333V12.059C40.4826 12.0378 40.4613 12.0166 40.4401 12.0166H36.6986C36.6774 12.0095 36.6632 11.9954 36.6632 11.9671Z" fill="#161616"/>
<path d="M93.3165 13.105L89.2207 8.8855C89.2065 8.87137 89.2065 8.84312 89.2207 8.82899L92.9058 5.01233C92.9342 4.98406 92.9129 4.94165 92.8774 4.94165H91.3682C91.354 4.94165 91.3469 4.94872 91.3398 4.95579L88.2149 8.19288C88.1865 8.22114 88.144 8.19992 88.144 8.16457V4.98406C88.144 4.96286 88.1227 4.94165 88.1014 4.94165H86.9178C86.8965 4.94165 86.8752 4.96286 86.8752 4.98406V13.1404C86.8752 13.1616 86.8965 13.1828 86.9178 13.1828H88.1014C88.1227 13.1828 88.144 13.1616 88.144 13.1404V9.54992C88.144 9.51457 88.1936 9.49336 88.2149 9.52161L91.7576 13.1686C91.7647 13.1757 91.7789 13.1828 91.786 13.1828H93.2953C93.3236 13.1757 93.3449 13.1262 93.3165 13.105Z" fill="#161616"/>
<path d="M17.9773 0.54541L10.8132 5.8463L12.1455 2.72231L17.9773 0.54541Z" fill="#E17726" stroke="#E17726" stroke-width="0.25" stroke-linecap="round" stroke-linejoin="round"/>
<path d="M1.45239 0.54541L8.55266 5.89577L7.28426 2.72231L1.45239 0.54541Z" fill="#E27625" stroke="#E27625" stroke-width="0.25" stroke-linecap="round" stroke-linejoin="round"/>
<path d="M15.3978 12.8364L13.4917 15.7484L17.5733 16.8722L18.7425 12.9001L15.3978 12.8364Z" fill="#E27625" stroke="#E27625" stroke-width="0.25" stroke-linecap="round" stroke-linejoin="round"/>
<path d="M0.694092 12.9001L1.8562 16.8722L5.93072 15.7484L4.03164 12.8364L0.694092 12.9001Z" fill="#E27625" stroke="#E27625" stroke-width="0.25" stroke-linecap="round" stroke-linejoin="round"/>
<path d="M5.71115 7.91713L4.57739 9.62756L8.61646 9.81133L8.48184 5.4646L5.71115 7.91713Z" fill="#E27625" stroke="#E27625" stroke-width="0.25" stroke-linecap="round" stroke-linejoin="round"/>
<path d="M13.7182 7.91729L10.9051 5.41528L10.813 9.81149L14.852 9.62773L13.7182 7.91729Z" fill="#E27625" stroke="#E27625" stroke-width="0.25" stroke-linecap="round" stroke-linejoin="round"/>
<path d="M5.93091 15.7483L8.37558 14.568L6.27105 12.9282L5.93091 15.7483Z" fill="#E27625" stroke="#E27625" stroke-width="0.25" stroke-linecap="round" stroke-linejoin="round"/>
<path d="M11.0542 14.568L13.4918 15.7483L13.1587 12.9282L11.0542 14.568Z" fill="#E27625" stroke="#E27625" stroke-width="0.25" stroke-linecap="round" stroke-linejoin="round"/>
<path d="M13.4918 15.7484L11.0542 14.5681L11.2526 16.1513L11.2313 16.8228L13.4918 15.7484Z" fill="#D5BFB2" stroke="#D5BFB2" stroke-width="0.25" stroke-linecap="round" stroke-linejoin="round"/>
<path d="M5.93091 15.7484L8.19847 16.8228L8.18429 16.1513L8.37558 14.5681L5.93091 15.7484Z" fill="#D5BFB2" stroke="#D5BFB2" stroke-width="0.25" stroke-linecap="round" stroke-linejoin="round"/>
<path d="M8.24099 11.8823L6.21436 11.2887L7.64574 10.6313L8.24099 11.8823Z" fill="#233447" stroke="#233447" stroke-width="0.25" stroke-linecap="round" stroke-linejoin="round"/>
<path d="M11.1887 11.8823L11.784 10.6313L13.2224 11.2887L11.1887 11.8823Z" fill="#233447" stroke="#233447" stroke-width="0.25" stroke-linecap="round" stroke-linejoin="round"/>
<path d="M5.93079 15.7484L6.28512 12.8364L4.03174 12.9001L5.93079 15.7484Z" fill="#CC6228" stroke="#CC6228" stroke-width="0.25" stroke-linecap="round" stroke-linejoin="round"/>
<path d="M13.1443 12.8364L13.4915 15.7484L15.3977 12.9001L13.1443 12.8364Z" fill="#CC6228" stroke="#CC6228" stroke-width="0.25" stroke-linecap="round" stroke-linejoin="round"/>
<path d="M14.852 9.62769L10.813 9.81145L11.1885 11.8824L11.7838 10.6313L13.2223 11.2886L14.852 9.62769Z" fill="#CC6228" stroke="#CC6228" stroke-width="0.25" stroke-linecap="round" stroke-linejoin="round"/>
<path d="M6.21427 11.2886L7.64566 10.6313L8.24091 11.8824L8.61646 9.81145L4.57739 9.62769L6.21427 11.2886Z" fill="#CC6228" stroke="#CC6228" stroke-width="0.25" stroke-linecap="round" stroke-linejoin="round"/>
<path d="M4.57739 9.62769L6.27098 12.9284L6.21425 11.2886L4.57739 9.62769Z" fill="#E27525" stroke="#E27525" stroke-width="0.25" stroke-linecap="round" stroke-linejoin="round"/>
<path d="M13.2225 11.2886L13.1587 12.9284L14.8523 9.62769L13.2225 11.2886Z" fill="#E27525" stroke="#E27525" stroke-width="0.25" stroke-linecap="round" stroke-linejoin="round"/>
<path d="M8.61657 9.81128L8.24097 11.8822L8.71573 14.3276L8.82204 11.1047L8.61657 9.81128Z" fill="#E27525" stroke="#E27525" stroke-width="0.25" stroke-linecap="round" stroke-linejoin="round"/>
<path d="M10.8132 9.81128L10.6147 11.0977L10.714 14.3276L11.1887 11.8822L10.8132 9.81128Z" fill="#E27525" stroke="#E27525" stroke-width="0.25" stroke-linecap="round" stroke-linejoin="round"/>
<path d="M11.1886 11.8823L10.7139 14.3277L11.054 14.5681L13.1586 12.9283L13.2224 11.2886L11.1886 11.8823Z" fill="#F5841F" stroke="#F5841F" stroke-width="0.25" stroke-linecap="round" stroke-linejoin="round"/>
<path d="M6.21436 11.2886L6.27108 12.9283L8.37561 14.5681L8.71576 14.3277L8.24099 11.8823L6.21436 11.2886Z" fill="#F5841F" stroke="#F5841F" stroke-width="0.25" stroke-linecap="round" stroke-linejoin="round"/>
<path d="M11.2313 16.8229L11.2525 16.1514L11.0683 15.9959H8.36145L8.18429 16.1514L8.19847 16.8229L5.93091 15.7485L6.72455 16.3988L8.33309 17.5084H11.0895L12.7052 16.3988L13.4917 15.7485L11.2313 16.8229Z" fill="#C0AC9D" stroke="#C0AC9D" stroke-width="0.25" stroke-linecap="round" stroke-linejoin="round"/>
<path d="M11.0542 14.5682L10.714 14.3279H8.71576L8.37567 14.5682L8.18433 16.1514L8.36149 15.9959H11.0684L11.2526 16.1514L11.0542 14.5682Z" fill="#161616" stroke="#161616" stroke-width="0.25" stroke-linecap="round" stroke-linejoin="round"/>
<path d="M18.282 6.19261L18.8843 3.26654L17.9773 0.54541L11.0542 5.66963L13.7185 7.91717L17.4812 9.01272L18.3103 8.04443L17.949 7.78288L18.5229 7.2599L18.0836 6.92063L18.6576 6.48241L18.282 6.19261Z" fill="#763E1A" stroke="#763E1A" stroke-width="0.25" stroke-linecap="round" stroke-linejoin="round"/>
<path d="M0.54541 3.26654L1.15481 6.19261L0.765081 6.48241L1.34614 6.92063L0.906801 7.2599L1.48077 7.78288L1.11938 8.04443L1.94846 9.01272L5.71119 7.91717L8.37552 5.66963L1.45243 0.54541L0.54541 3.26654Z" fill="#763E1A" stroke="#763E1A" stroke-width="0.25" stroke-linecap="round" stroke-linejoin="round"/>
<path d="M17.4812 9.01273L13.7185 7.91724L14.8523 9.62767L13.1587 12.9283L15.3979 12.9001H18.7425L17.4812 9.01273Z" fill="#F5841F" stroke="#F5841F" stroke-width="0.25" stroke-linecap="round" stroke-linejoin="round"/>
<path d="M5.71101 7.91724L1.94833 9.01273L0.694092 12.9001H4.03164L6.27081 12.9283L4.57727 9.62767L5.71101 7.91724Z" fill="#F5841F" stroke="#F5841F" stroke-width="0.25" stroke-linecap="round" stroke-linejoin="round"/>
<path d="M10.8133 9.81148L11.0542 5.66968L12.1455 2.72241H7.28442L8.37566 5.66968L8.61659 9.81148L8.70871 11.112L8.71581 14.3278H10.7141L10.7212 11.112L10.8133 9.81148Z" fill="#F5841F" stroke="#F5841F" stroke-width="0.25" stroke-linecap="round" stroke-linejoin="round"/>
</g>
<defs>
<clipPath id="clip0_520_3291">
<rect width="93.8182" height="18" fill="white"/>
</clipPath>
</defs>
</svg>
