<svg width="75" height="16" viewBox="0 0 75 16" fill="none" xmlns="http://www.w3.org/2000/svg">
<path d="M26.4735 9.21565L26.0265 10.4808H25.9893C25.9148 10.1955 25.7782 9.76138 25.5547 9.24045L23.1581 3.22495H20.8113V12.8125H22.3634V6.89627C22.3634 6.52417 22.3634 6.10247 22.351 5.58154C22.3386 5.32107 22.3138 5.12262 22.3013 4.97378H22.3386C22.4131 5.34588 22.5 5.61875 22.5621 5.79239L25.4429 12.7877H26.5356L29.3916 5.73037C29.4537 5.56913 29.5157 5.24665 29.5778 4.97378H29.6151C29.5778 5.68076 29.553 6.31332 29.5406 6.69782V12.7753H31.1921V3.20014H28.9321L26.4735 9.21565ZM32.7566 5.90402H34.3709V12.7753H32.7566V5.90402ZM33.5762 3.00169C33.303 3.00169 33.0795 3.10092 32.8932 3.27456C32.707 3.4482 32.6076 3.67146 32.6076 3.94433C32.6076 4.20479 32.707 4.42805 32.8932 4.60169C33.0795 4.77533 33.303 4.86216 33.5762 4.86216C33.8494 4.86216 34.0853 4.76293 34.2591 4.60169C34.4454 4.42805 34.5447 4.20479 34.5447 3.94433C34.5447 3.68386 34.4454 3.46061 34.2591 3.27456C34.0977 3.10092 33.8618 3.00169 33.5762 3.00169ZM40.0952 5.842C39.7972 5.77999 39.4868 5.74278 39.1888 5.74278C38.4561 5.74278 37.7856 5.90402 37.2268 6.2265C36.6681 6.54898 36.221 6.99549 35.9355 7.55363C35.6374 8.12417 35.4884 8.78154 35.4884 9.53813C35.4884 10.1955 35.6374 10.7784 35.923 11.3118C36.2086 11.8327 36.606 12.2544 37.1399 12.5397C37.649 12.8249 38.2451 12.9738 38.9156 12.9738C39.6855 12.9738 40.3436 12.8125 40.8651 12.5149L40.8775 12.5025V11.0141L40.8154 11.0637C40.5795 11.2373 40.3063 11.3862 40.0331 11.473C39.7475 11.5722 39.4868 11.6218 39.2633 11.6218C38.6176 11.6218 38.1085 11.4358 37.7484 11.0265C37.3758 10.6296 37.1896 10.0839 37.1896 9.40169C37.1896 8.69472 37.3759 8.13657 37.7608 7.72727C38.1457 7.31797 38.6548 7.10712 39.2757 7.10712C39.7972 7.10712 40.3312 7.28076 40.8154 7.62805L40.8775 7.67766V6.10247L40.8651 6.09006C40.654 6.00324 40.4181 5.90402 40.0952 5.842ZM45.4222 5.79239C45.0249 5.79239 44.6523 5.91642 44.3295 6.17688C44.0563 6.40014 43.8701 6.72262 43.7086 7.10712H43.6962V5.90402H42.082V12.7753H43.6962V9.26526C43.6962 8.66991 43.8204 8.17378 44.0936 7.81409C44.3667 7.442 44.7144 7.25595 45.1366 7.25595C45.2856 7.25595 45.4346 7.29316 45.6209 7.31797C45.7947 7.36758 45.9189 7.41719 46.0058 7.47921L46.0679 7.52882V5.91642L46.0307 5.90402C45.9189 5.8296 45.6954 5.79239 45.4222 5.79239ZM49.8179 5.75518C48.6879 5.75518 47.7815 6.09006 47.1482 6.74743C46.5025 7.40479 46.1921 8.31022 46.1921 9.4513C46.1921 10.518 46.5149 11.3862 47.1358 12.0187C47.7566 12.6389 48.601 12.9614 49.6565 12.9614C50.7616 12.9614 51.6432 12.6265 52.2765 11.9567C52.9222 11.287 53.2326 10.3939 53.2326 9.29006C53.2326 8.19859 52.9346 7.33037 52.3262 6.69782C51.7426 6.06526 50.8858 5.75518 49.8179 5.75518ZM51.1093 11.0389C50.8113 11.4234 50.3394 11.6094 49.7558 11.6094C49.1722 11.6094 48.7004 11.4234 48.3651 11.0141C48.0298 10.6296 47.8684 10.0715 47.8684 9.36448C47.8684 8.6327 48.0422 8.07456 48.3651 7.67766C48.7004 7.28076 49.1598 7.08231 49.7434 7.08231C50.3146 7.08231 50.7616 7.26836 51.0845 7.65285C51.4073 8.03735 51.5811 8.59549 51.5811 9.32727C51.5563 10.0715 51.4197 10.6544 51.1093 11.0389ZM56.8336 8.75673C56.3245 8.54588 56.0017 8.38464 55.8527 8.2482C55.7285 8.12417 55.6664 7.95053 55.6664 7.72727C55.6664 7.54123 55.7409 7.35518 55.9272 7.23115C56.1134 7.10712 56.3245 7.0451 56.635 7.0451C56.9081 7.0451 57.1937 7.09471 57.4669 7.16913C57.7401 7.24355 57.9884 7.35518 58.1871 7.50402L58.2492 7.55363V6.04045L58.2119 6.02805C58.0257 5.95363 57.7773 5.87921 57.4793 5.8172C57.1813 5.76758 56.9081 5.74278 56.6846 5.74278C55.9148 5.74278 55.2815 5.92882 54.7848 6.33812C54.2881 6.72262 54.0522 7.24355 54.0522 7.8513C54.0522 8.17378 54.1018 8.45906 54.2136 8.69471C54.3254 8.93037 54.4868 9.15363 54.7103 9.33968C54.9338 9.51332 55.2566 9.71177 55.7037 9.89782C56.0762 10.0591 56.3618 10.1831 56.5356 10.2823C56.7095 10.3815 56.8212 10.4932 56.9081 10.58C56.9702 10.6792 57.0075 10.8032 57.0075 10.9645C57.0075 11.4234 56.6598 11.6467 55.952 11.6467C55.6788 11.6467 55.3932 11.597 55.058 11.4854C54.7227 11.3738 54.4123 11.2125 54.1515 11.0265L54.0894 10.9769V12.5521L54.1267 12.5645C54.3626 12.6761 54.6482 12.7505 54.9959 12.8373C55.3436 12.8994 55.654 12.949 55.9272 12.949C56.7591 12.949 57.4421 12.7629 57.9263 12.3536C58.423 11.9567 58.6838 11.4482 58.6838 10.7908C58.6838 10.3319 58.5596 9.92262 58.2864 9.61254C57.9263 9.31487 57.4793 9.00479 56.8336 8.75673ZM62.9429 5.75518C61.8129 5.75518 60.9065 6.09006 60.2732 6.74743C59.6399 7.40479 59.3171 8.31022 59.3171 9.4513C59.3171 10.518 59.6399 11.3862 60.2608 12.0187C60.8816 12.6389 61.726 12.9614 62.7815 12.9614C63.8866 12.9614 64.7682 12.6265 65.4015 11.9567C66.0472 11.287 66.3576 10.3939 66.3576 9.29006C66.3576 8.19859 66.0596 7.33037 65.4512 6.69782C64.8676 6.06526 64.0108 5.75518 62.9429 5.75518ZM64.2219 11.0389C63.9239 11.4234 63.452 11.6094 62.8684 11.6094C62.2724 11.6094 61.8129 11.4234 61.4777 11.0141C61.1424 10.6296 60.981 10.0715 60.981 9.36448C60.981 8.6327 61.1548 8.07456 61.4777 7.67766C61.8129 7.28076 62.2724 7.08231 62.856 7.08231C63.4148 7.08231 63.8742 7.26836 64.197 7.65285C64.5199 8.03735 64.6937 8.59549 64.6937 9.32727C64.6937 10.0715 64.5323 10.6544 64.2219 11.0389ZM74.9876 7.23115V5.90402H73.361V3.86991L73.3113 3.88231L71.7715 4.34123L71.7343 4.35363V5.90402H69.3005V5.0358C69.3005 4.6389 69.3999 4.32882 69.5737 4.13037C69.7475 3.93192 70.0083 3.8327 70.3312 3.8327C70.5547 3.8327 70.7906 3.88231 71.0513 3.99394L71.1134 4.03115V2.6296L71.0762 2.6172C70.8527 2.54278 70.5547 2.49316 70.1697 2.49316C69.6855 2.49316 69.2633 2.60479 68.8783 2.79084C68.4934 3.00169 68.2078 3.28696 67.9967 3.67146C67.7856 4.04355 67.6739 4.46526 67.6739 4.94898V5.90402H66.5439V7.21875H67.6739V12.7753H69.3005V7.23115H71.7343V10.766C71.7343 12.2172 72.4172 12.949 73.7831 12.949C74.0066 12.949 74.2426 12.9118 74.4661 12.8746C74.702 12.8249 74.8759 12.7629 74.9752 12.7133L74.9876 12.7009V11.3738L74.9255 11.4234C74.8262 11.4854 74.7393 11.535 74.5903 11.5722C74.4661 11.6094 74.3543 11.6218 74.2674 11.6218C73.9446 11.6218 73.7211 11.5474 73.5596 11.3614C73.4106 11.1877 73.3361 10.9025 73.3361 10.4808V7.23115H74.9876Z" fill="#737373"/>
<path d="M0 0H7.61175V7.6031H0V0Z" fill="#F25022"/>
<path d="M8.40637 0H16.0181V7.6031H8.40637V0Z" fill="#7FBA00"/>
<path d="M0 8.39697H7.61175V16.0001H0V8.39697Z" fill="#00A4EF"/>
<path d="M8.40637 8.39697H16.0181V16.0001H8.40637V8.39697Z" fill="#FFB900"/>
</svg>
