<svg width="50" height="18" viewBox="0 0 50 18" fill="none" xmlns="http://www.w3.org/2000/svg">
<path d="M5.93242 17.6477C4.47242 17.5897 3.27792 17.1902 2.34392 16.4482C2.16567 16.3064 1.74092 15.8814 1.59842 15.7022C1.21967 15.2259 0.962169 14.7624 0.790419 14.2482C0.261919 12.6652 0.533919 10.5879 1.56842 8.30816C2.45417 6.35641 3.82092 4.42066 6.20542 1.73966C6.55667 1.34516 7.60267 0.191406 7.60942 0.191406C7.61192 0.191406 7.55492 0.290158 7.48317 0.410408C6.86317 1.44891 6.33267 2.67216 6.04367 3.73116C5.57942 5.43041 5.63542 6.88866 6.20767 8.01941C6.60242 8.79841 7.27917 9.47316 8.04017 9.84616C9.37242 10.4989 11.3229 10.5529 13.7049 10.0042C13.8689 9.96616 21.9954 7.80891 31.7639 5.21016C41.5324 2.61116 49.5262 0.486409 49.5274 0.488159C49.5302 0.490409 26.8324 10.2029 15.0497 15.2417C13.1837 16.0394 12.6847 16.2409 11.8074 16.5489C9.56492 17.3364 7.55617 17.7122 5.93242 17.6477Z" fill="black"/>
</svg>
