<svg width="74" height="60" viewBox="0 0 74 60" fill="none" xmlns="http://www.w3.org/2000/svg">
<path d="M28.6665 50C28.0798 50 5.9198 50 5.33313 50C2.57313 50 0.33313 52.24 0.33313 55C0.33313 57.76 2.57313 60 5.33313 60C5.9198 60 28.0798 60 28.6665 60C31.4265 60 33.6665 57.76 33.6665 55C33.6665 52.24 31.4265 50 28.6665 50Z" fill="white"/>
<path d="M28.6665 50C28.0798 50 5.9198 50 5.33313 50C2.57313 50 0.33313 52.24 0.33313 55C0.33313 57.76 2.57313 60 5.33313 60C5.9198 60 28.0798 60 28.6665 60C31.4265 60 33.6665 57.76 33.6665 55C33.6665 52.24 31.4265 50 28.6665 50Z" fill="black" fill-opacity="0.1"/>
<path d="M68.6665 50C68.0798 50 45.9199 50 45.3332 50C42.5732 50 40.3332 52.24 40.3332 55C40.3332 57.76 42.5732 60 45.3332 60C45.9199 60 68.0798 60 68.6665 60C71.4265 60 73.6665 57.76 73.6665 55C73.6665 52.24 71.4265 50 68.6665 50Z" fill="white"/>
<path d="M68.6665 50C68.0798 50 45.9199 50 45.3332 50C42.5732 50 40.3332 52.24 40.3332 55C40.3332 57.76 42.5732 60 45.3332 60C45.9199 60 68.0798 60 68.6665 60C71.4265 60 73.6665 57.76 73.6665 55C73.6665 52.24 71.4265 50 68.6665 50Z" fill="black" fill-opacity="0.1"/>
<g opacity="0.35">
<path d="M16.9998 43.3333C22.5227 43.3333 26.9998 38.8561 26.9998 33.3333C26.9998 27.8104 22.5227 23.3333 16.9998 23.3333C11.477 23.3333 6.99982 27.8104 6.99982 33.3333C6.99982 38.8561 11.477 43.3333 16.9998 43.3333Z" fill="white"/>
<path d="M16.9998 43.3333C22.5227 43.3333 26.9998 38.8561 26.9998 33.3333C26.9998 27.8104 22.5227 23.3333 16.9998 23.3333C11.477 23.3333 6.99982 27.8104 6.99982 33.3333C6.99982 38.8561 11.477 43.3333 16.9998 43.3333Z" fill="black" fill-opacity="0.1"/>
</g>
<g opacity="0.35">
<path d="M56.9998 43.3333C62.5227 43.3333 66.9998 38.8561 66.9998 33.3333C66.9998 27.8104 62.5227 23.3333 56.9998 23.3333C51.477 23.3333 46.9998 27.8104 46.9998 33.3333C46.9998 38.8561 51.477 43.3333 56.9998 43.3333Z" fill="white"/>
<path d="M56.9998 43.3333C62.5227 43.3333 66.9998 38.8561 66.9998 33.3333C66.9998 27.8104 62.5227 23.3333 56.9998 23.3333C51.477 23.3333 46.9998 27.8104 46.9998 33.3333C46.9998 38.8561 51.477 43.3333 56.9998 43.3333Z" fill="black" fill-opacity="0.1"/>
</g>
<g opacity="0.35">
<path d="M36.9997 23.3334C41.6021 23.3334 45.333 19.6025 45.333 15.0001C45.333 10.3977 41.6021 6.66675 36.9997 6.66675C32.3973 6.66675 28.6664 10.3977 28.6664 15.0001C28.6664 19.6025 32.3973 23.3334 36.9997 23.3334Z" fill="white"/>
<path d="M36.9997 23.3334C41.6021 23.3334 45.333 19.6025 45.333 15.0001C45.333 10.3977 41.6021 6.66675 36.9997 6.66675C32.3973 6.66675 28.6664 10.3977 28.6664 15.0001C28.6664 19.6025 32.3973 23.3334 36.9997 23.3334Z" fill="black" fill-opacity="0.1"/>
</g>
<g opacity="0.35">
<path d="M15.3331 16.6667C19.9355 16.6667 23.6665 12.9357 23.6665 8.33333C23.6665 3.73096 19.9355 0 15.3331 0C10.7308 0 6.99982 3.73096 6.99982 8.33333C6.99982 12.9357 10.7308 16.6667 15.3331 16.6667Z" fill="white"/>
<path d="M15.3331 16.6667C19.9355 16.6667 23.6665 12.9357 23.6665 8.33333C23.6665 3.73096 19.9355 0 15.3331 0C10.7308 0 6.99982 3.73096 6.99982 8.33333C6.99982 12.9357 10.7308 16.6667 15.3331 16.6667Z" fill="black" fill-opacity="0.1"/>
</g>
<g opacity="0.35">
<path d="M58.6665 16.6667C63.2688 16.6667 66.9998 12.9357 66.9998 8.33333C66.9998 3.73096 63.2688 0 58.6665 0C54.0641 0 50.3331 3.73096 50.3331 8.33333C50.3331 12.9357 54.0641 16.6667 58.6665 16.6667Z" fill="white"/>
<path d="M58.6665 16.6667C63.2688 16.6667 66.9998 12.9357 66.9998 8.33333C66.9998 3.73096 63.2688 0 58.6665 0C54.0641 0 50.3331 3.73096 50.3331 8.33333C50.3331 12.9357 54.0641 16.6667 58.6665 16.6667Z" fill="black" fill-opacity="0.1"/>
</g>
</svg>
