<svg width="125" height="72" viewBox="0 0 125 72" fill="none" xmlns="http://www.w3.org/2000/svg">
<g filter="url(#filter0_dd_709_6246)">
<path d="M12 36C12 22.7452 22.7452 12 36 12H89C102.255 12 113 22.7452 113 36C113 49.2548 102.255 60 89 60H36C22.7452 60 12 49.2548 12 36Z" fill="#8D1919"/>
<path d="M12 36C12 22.7452 22.7452 12 36 12H89C102.255 12 113 22.7452 113 36C113 49.2548 102.255 60 89 60H36C22.7452 60 12 49.2548 12 36Z" fill="url(#paint0_linear_709_6246)" fill-opacity="0.5"/>
<path d="M48.5948 41.098C47.9508 41.098 47.3721 40.986 46.8588 40.762C46.3548 40.5287 45.9581 40.2113 45.6688 39.81C45.3794 39.3993 45.2301 38.928 45.2208 38.396H46.5788C46.6254 38.8533 46.8121 39.2407 47.1388 39.558C47.4748 39.866 47.9601 40.02 48.5948 40.02C49.2014 40.02 49.6774 39.8707 50.0228 39.572C50.3774 39.264 50.5548 38.872 50.5548 38.396C50.5548 38.0227 50.4521 37.7193 50.2468 37.486C50.0414 37.2527 49.7848 37.0753 49.4768 36.954C49.1688 36.8327 48.7534 36.702 48.2308 36.562C47.5868 36.394 47.0688 36.226 46.6768 36.058C46.2941 35.89 45.9628 35.6287 45.6828 35.274C45.4121 34.91 45.2768 34.4247 45.2768 33.818C45.2768 33.286 45.4121 32.8147 45.6828 32.404C45.9534 31.9933 46.3314 31.676 46.8168 31.452C47.3114 31.228 47.8761 31.116 48.5108 31.116C49.4254 31.116 50.1721 31.3447 50.7508 31.802C51.3388 32.2593 51.6701 32.866 51.7448 33.622H50.3448C50.2981 33.2487 50.1021 32.922 49.7568 32.642C49.4114 32.3527 48.9541 32.208 48.3848 32.208C47.8528 32.208 47.4188 32.348 47.0828 32.628C46.7468 32.8987 46.5788 33.2813 46.5788 33.776C46.5788 34.1307 46.6768 34.42 46.8728 34.644C47.0781 34.868 47.3254 35.0407 47.6148 35.162C47.9134 35.274 48.3288 35.4047 48.8608 35.554C49.5048 35.7313 50.0228 35.9087 50.4148 36.086C50.8068 36.254 51.1428 36.52 51.4228 36.884C51.7028 37.2387 51.8428 37.724 51.8428 38.34C51.8428 38.816 51.7168 39.264 51.4648 39.684C51.2128 40.104 50.8394 40.4447 50.3448 40.706C49.8501 40.9673 49.2668 41.098 48.5948 41.098ZM60.9976 36.87C60.9976 37.1127 60.9836 37.3693 60.9556 37.64H54.8236C54.8702 38.396 55.1269 38.9887 55.5936 39.418C56.0696 39.838 56.6436 40.048 57.3156 40.048C57.8662 40.048 58.3236 39.922 58.6876 39.67C59.0609 39.4087 59.3222 39.0633 59.4716 38.634H60.8436C60.6382 39.3713 60.2276 39.9733 59.6116 40.44C58.9956 40.8973 58.2302 41.126 57.3156 41.126C56.5876 41.126 55.9342 40.9627 55.3556 40.636C54.7862 40.3093 54.3382 39.8473 54.0116 39.25C53.6849 38.6433 53.5216 37.9433 53.5216 37.15C53.5216 36.3567 53.6802 35.6613 53.9976 35.064C54.3149 34.4667 54.7582 34.0093 55.3276 33.692C55.9062 33.3653 56.5689 33.202 57.3156 33.202C58.0436 33.202 58.6876 33.3607 59.2476 33.678C59.8076 33.9953 60.2369 34.434 60.5356 34.994C60.8436 35.5447 60.9976 36.17 60.9976 36.87ZM59.6816 36.604C59.6816 36.1187 59.5742 35.7033 59.3596 35.358C59.1449 35.0033 58.8509 34.7373 58.4776 34.56C58.1136 34.3733 57.7076 34.28 57.2596 34.28C56.6156 34.28 56.0649 34.4853 55.6076 34.896C55.1596 35.3067 54.9029 35.876 54.8376 36.604H59.6816ZM66.6972 33.188C67.6305 33.188 68.3865 33.4727 68.9652 34.042C69.5439 34.602 69.8332 35.414 69.8332 36.478V41H68.5732V36.66C68.5732 35.8947 68.3819 35.3113 67.9992 34.91C67.6165 34.4993 67.0939 34.294 66.4312 34.294C65.7592 34.294 65.2225 34.504 64.8212 34.924C64.4292 35.344 64.2332 35.9553 64.2332 36.758V41H62.9592V33.328H64.2332V34.42C64.4852 34.028 64.8259 33.7247 65.2552 33.51C65.6939 33.2953 66.1745 33.188 66.6972 33.188ZM71.7183 37.136C71.7183 36.352 71.877 35.666 72.1943 35.078C72.5116 34.4807 72.9456 34.0187 73.4963 33.692C74.0563 33.3653 74.6816 33.202 75.3723 33.202C75.9696 33.202 76.525 33.342 77.0383 33.622C77.5516 33.8927 77.9436 34.252 78.2143 34.7V30.64H79.5023V41H78.2143V39.558C77.9623 40.0153 77.589 40.3933 77.0943 40.692C76.5996 40.9813 76.021 41.126 75.3583 41.126C74.677 41.126 74.0563 40.958 73.4963 40.622C72.9456 40.286 72.5116 39.8147 72.1943 39.208C71.877 38.6013 71.7183 37.9107 71.7183 37.136ZM78.2143 37.15C78.2143 36.5713 78.0976 36.0673 77.8643 35.638C77.631 35.2087 77.3136 34.882 76.9123 34.658C76.5203 34.4247 76.0863 34.308 75.6103 34.308C75.1343 34.308 74.7003 34.42 74.3083 34.644C73.9163 34.868 73.6036 35.1947 73.3703 35.624C73.137 36.0533 73.0203 36.5573 73.0203 37.136C73.0203 37.724 73.137 38.2373 73.3703 38.676C73.6036 39.1053 73.9163 39.4367 74.3083 39.67C74.7003 39.894 75.1343 40.006 75.6103 40.006C76.0863 40.006 76.5203 39.894 76.9123 39.67C77.3136 39.4367 77.631 39.1053 77.8643 38.676C78.0976 38.2373 78.2143 37.7287 78.2143 37.15Z" fill="white"/>
</g>
<defs>
<filter id="filter0_dd_709_6246" x="0" y="0" width="125" height="72" filterUnits="userSpaceOnUse" color-interpolation-filters="sRGB">
<feFlood flood-opacity="0" result="BackgroundImageFix"/>
<feColorMatrix in="SourceAlpha" type="matrix" values="0 0 0 0 0 0 0 0 0 0 0 0 0 0 0 0 0 0 127 0" result="hardAlpha"/>
<feOffset dx="4" dy="4"/>
<feGaussianBlur stdDeviation="4"/>
<feComposite in2="hardAlpha" operator="out"/>
<feColorMatrix type="matrix" values="0 0 0 0 0 0 0 0 0 0 0 0 0 0 0 0 0 0 0.16 0"/>
<feBlend mode="normal" in2="BackgroundImageFix" result="effect1_dropShadow_709_6246"/>
<feColorMatrix in="SourceAlpha" type="matrix" values="0 0 0 0 0 0 0 0 0 0 0 0 0 0 0 0 0 0 127 0" result="hardAlpha"/>
<feOffset dx="-4" dy="-4"/>
<feGaussianBlur stdDeviation="4"/>
<feComposite in2="hardAlpha" operator="out"/>
<feColorMatrix type="matrix" values="0 0 0 0 1 0 0 0 0 1 0 0 0 0 1 0 0 0 1 0"/>
<feBlend mode="normal" in2="effect1_dropShadow_709_6246" result="effect2_dropShadow_709_6246"/>
<feBlend mode="normal" in="SourceGraphic" in2="effect2_dropShadow_709_6246" result="shape"/>
</filter>
<linearGradient id="paint0_linear_709_6246" x1="62.3536" y1="12" x2="62.3537" y2="60" gradientUnits="userSpaceOnUse">
<stop stop-color="#D37979"/>
<stop offset="1" stop-color="#8D1919"/>
</linearGradient>
</defs>
</svg>
