<svg width="60" height="60" viewBox="0 0 60 60" fill="none" xmlns="http://www.w3.org/2000/svg">
<path d="M59.9998 13.3333V10L6.66644 20H53.3331C57.0164 20 59.9998 17.0167 59.9998 13.3333Z" fill="white"/>
<path d="M59.9998 13.3333V10L6.66644 20H53.3331C57.0164 20 59.9998 17.0167 59.9998 13.3333Z" fill="black" fill-opacity="0.1"/>
<path d="M59.9998 33.3333V30L6.66644 40H53.3331C57.0164 40 59.9998 37.0167 59.9998 33.3333Z" fill="white"/>
<path d="M59.9998 33.3333V30L6.66644 40H53.3331C57.0164 40 59.9998 37.0167 59.9998 33.3333Z" fill="black" fill-opacity="0.1"/>
<g opacity="0.35">
<path d="M59.9999 13.3333V6.66667C59.9999 2.98333 57.0165 0 53.3332 0H6.66654C2.98321 0 -0.00012207 2.98333 -0.00012207 6.66667V13.3333C-0.00012207 17.0167 2.98321 20 6.66654 20C2.98321 20 -0.00012207 22.9833 -0.00012207 26.6667V33.3333C-0.00012207 37.0167 2.98321 40 6.66654 40C2.98321 40 -0.00012207 42.9833 -0.00012207 46.6667V53.3333C-0.00012207 57.0167 2.98321 60 6.66654 60H53.3332C57.0165 60 59.9999 57.0167 59.9999 53.3333V46.6667C59.9999 42.9833 57.0165 40 53.3332 40C57.0165 40 59.9999 37.0167 59.9999 33.3333V26.6667C59.9999 22.9833 57.0165 20 53.3332 20C57.0165 20 59.9999 17.0167 59.9999 13.3333Z" fill="white"/>
<path d="M59.9999 13.3333V6.66667C59.9999 2.98333 57.0165 0 53.3332 0H6.66654C2.98321 0 -0.00012207 2.98333 -0.00012207 6.66667V13.3333C-0.00012207 17.0167 2.98321 20 6.66654 20C2.98321 20 -0.00012207 22.9833 -0.00012207 26.6667V33.3333C-0.00012207 37.0167 2.98321 40 6.66654 40C2.98321 40 -0.00012207 42.9833 -0.00012207 46.6667V53.3333C-0.00012207 57.0167 2.98321 60 6.66654 60H53.3332C57.0165 60 59.9999 57.0167 59.9999 53.3333V46.6667C59.9999 42.9833 57.0165 40 53.3332 40C57.0165 40 59.9999 37.0167 59.9999 33.3333V26.6667C59.9999 22.9833 57.0165 20 53.3332 20C57.0165 20 59.9999 17.0167 59.9999 13.3333Z" fill="black" fill-opacity="0.1"/>
</g>
<path d="M59.9998 53.3333V50L6.66644 60H53.3331C57.0164 60 59.9998 57.0167 59.9998 53.3333Z" fill="white"/>
<path d="M59.9998 53.3333V50L6.66644 60H53.3331C57.0164 60 59.9998 57.0167 59.9998 53.3333Z" fill="black" fill-opacity="0.1"/>
</svg>
