<svg width="12" height="12" viewBox="0 0 12 12" fill="none" xmlns="http://www.w3.org/2000/svg">
<path d="M6.00007 10.8C6.10237 10.8 6.20468 10.7611 6.28288 10.6829L9.48288 7.48286C9.59728 7.36846 9.6316 7.19652 9.5696 7.04692C9.508 6.89732 9.36167 6.80005 9.20007 6.80005H2.80007C2.63847 6.80005 2.49214 6.89732 2.43054 7.04692C2.36854 7.19652 2.40286 7.36846 2.51726 7.48286L5.71726 10.6829C5.79546 10.7611 5.89777 10.8 6.00007 10.8Z" fill="white"/>
<path d="M6.00007 10.8C6.10237 10.8 6.20468 10.7611 6.28288 10.6829L9.48288 7.48286C9.59728 7.36846 9.6316 7.19652 9.5696 7.04692C9.508 6.89732 9.36167 6.80005 9.20007 6.80005H2.80007C2.63847 6.80005 2.49214 6.89732 2.43054 7.04692C2.36854 7.19652 2.40286 7.36846 2.51726 7.48286L5.71726 10.6829C5.79546 10.7611 5.89777 10.8 6.00007 10.8Z" fill="black" fill-opacity="0.4"/>
<path d="M9.5696 4.95308C9.508 5.10268 9.36167 5.19995 9.20007 5.19995H2.80007C2.63847 5.19995 2.49214 5.10268 2.43054 4.95308C2.36854 4.80348 2.40286 4.63154 2.51726 4.51714L5.71726 1.31714C5.79526 1.23914 5.89767 1.19995 6.00007 1.19995C6.10247 1.19995 6.20488 1.23914 6.28288 1.31714L9.48288 4.51714C9.59728 4.63154 9.6316 4.80348 9.5696 4.95308Z" fill="white"/>
<path d="M9.5696 4.95308C9.508 5.10268 9.36167 5.19995 9.20007 5.19995H2.80007C2.63847 5.19995 2.49214 5.10268 2.43054 4.95308C2.36854 4.80348 2.40286 4.63154 2.51726 4.51714L5.71726 1.31714C5.79526 1.23914 5.89767 1.19995 6.00007 1.19995C6.10247 1.19995 6.20488 1.23914 6.28288 1.31714L9.48288 4.51714C9.59728 4.63154 9.6316 4.80348 9.5696 4.95308Z" fill="black" fill-opacity="0.4"/>
</svg>
