<svg width="18" height="18" viewBox="0 0 18 18" fill="none" xmlns="http://www.w3.org/2000/svg">
<path fill-rule="evenodd" clip-rule="evenodd" d="M12.9729 0.520508H5.02634C2.25709 0.520508 0.52092 2.48126 0.52092 5.25601V12.7433C0.52092 15.5181 2.24884 17.4788 5.02634 17.4788H12.972C15.7504 17.4788 17.4793 15.5181 17.4793 12.7433V5.25601C17.4793 2.48126 15.7504 0.520508 12.9729 0.520508Z" stroke="white" stroke-linecap="round" stroke-linejoin="round"/>
<path fill-rule="evenodd" clip-rule="evenodd" d="M12.9729 0.520508H5.02634C2.25709 0.520508 0.52092 2.48126 0.52092 5.25601V12.7433C0.52092 15.5181 2.24884 17.4788 5.02634 17.4788H12.972C15.7504 17.4788 17.4793 15.5181 17.4793 12.7433V5.25601C17.4793 2.48126 15.7504 0.520508 12.9729 0.520508Z" stroke="#8D1919" stroke-linecap="round" stroke-linejoin="round"/>
<path d="M8.99514 12.6667V9" stroke="white" stroke-linecap="round" stroke-linejoin="round"/>
<path d="M8.99514 12.6667V9" stroke="#8D1919" stroke-linecap="round" stroke-linejoin="round"/>
<path d="M8.99074 5.51986H8.9999" stroke="white" stroke-width="1.5" stroke-linecap="round" stroke-linejoin="round"/>
<path d="M8.99074 5.51986H8.9999" stroke="#8D1919" stroke-width="1.5" stroke-linecap="round" stroke-linejoin="round"/>
</svg>
