<svg width="24" height="24" viewBox="0 0 24 24" fill="none" xmlns="http://www.w3.org/2000/svg">
<mask id="mask0_33437:4674" style="mask-type:alpha" maskUnits="userSpaceOnUse" x="14" y="2" width="9" height="9">
<path fill-rule="evenodd" clip-rule="evenodd" d="M14.354 2.00024H22.893V10.5331H14.354V2.00024Z" fill="white"/>
</mask>
<g mask="url(#mask0_33437:4674)">
<path fill-rule="evenodd" clip-rule="evenodd" d="M22.1427 10.5331C21.7657 10.5331 21.4417 10.2501 21.3987 9.86706C21.0197 6.49106 18.3977 3.87106 15.0207 3.49606C14.6097 3.45006 14.3127 3.08006 14.3587 2.66806C14.4037 2.25706 14.7707 1.95406 15.1867 2.00606C19.2647 2.45906 22.4317 5.62206 22.8887 9.69906C22.9347 10.1111 22.6387 10.4821 22.2277 10.5281C22.1997 10.5311 22.1707 10.5331 22.1427 10.5331Z" fill="black"/>
</g>
<path fill-rule="evenodd" clip-rule="evenodd" d="M18.6026 10.5439C18.2506 10.5439 17.9376 10.2959 17.8676 9.93791C17.5796 8.45791 16.4386 7.31691 14.9606 7.02991C14.5536 6.95091 14.2886 6.55791 14.3676 6.15091C14.4466 5.74391 14.8466 5.47791 15.2466 5.55791C17.3276 5.96191 18.9346 7.56791 19.3396 9.64991C19.4186 10.0579 19.1536 10.4509 18.7476 10.5299C18.6986 10.5389 18.6506 10.5439 18.6026 10.5439Z" fill="black"/>
<mask id="mask1_33437:4674" style="mask-type:alpha" maskUnits="userSpaceOnUse" x="2" y="1" width="21" height="22">
<path fill-rule="evenodd" clip-rule="evenodd" d="M2.00037 1.99988H22.5006V22.5004H2.00037V1.99988Z" fill="white"/>
</mask>
<g mask="url(#mask1_33437:4674)">
<path fill-rule="evenodd" clip-rule="evenodd" d="M4.35945 5.06142C4.36145 5.06142 4.31145 5.11342 4.24845 5.17542C4.00645 5.41042 3.50545 5.89942 3.50045 6.92242C3.49245 8.35342 4.43345 11.0104 8.96445 15.5404C13.4734 20.0484 16.1265 21.0004 17.5615 21.0004H17.5824C18.6054 20.9944 19.0935 20.4934 19.3285 20.2524C19.3995 20.1794 19.4575 20.1244 19.4985 20.0914C20.4955 19.0884 21.0054 18.3434 21.0005 17.8644C20.9944 17.3764 20.3874 16.8004 19.5485 16.0014C19.2815 15.7484 18.9914 15.4714 18.6854 15.1654C17.8914 14.3744 17.5005 14.5094 16.6355 14.8134C15.4405 15.2324 13.8035 15.8064 11.2524 13.2534C8.70045 10.7024 9.27245 9.06542 9.68945 7.86942C9.99145 7.00542 10.1295 6.61242 9.33645 5.81842C9.02645 5.50842 8.74745 5.21442 8.49045 4.94442C7.69645 4.11042 7.12345 3.50742 6.63845 3.50042H6.63045C6.15145 3.50042 5.40745 4.01242 4.35445 5.06542C4.35745 5.06242 4.35845 5.06142 4.35945 5.06142ZM17.5615 22.5004C15.0695 22.5004 11.8204 20.5164 7.90445 16.6014C3.97245 12.6704 1.98545 9.41142 2.00045 6.91442C2.00945 5.26442 2.87445 4.41942 3.19945 4.10242C3.21645 4.08142 3.27445 4.02442 3.29445 4.00442C4.72945 2.56942 5.71545 1.97942 6.65745 2.00042C7.77445 2.01542 8.57045 2.85242 9.57745 3.91142C9.82645 4.17242 10.0955 4.45742 10.3965 4.75742C11.8554 6.21742 11.4405 7.40842 11.1055 8.36442C10.7415 9.40742 10.4265 10.3074 12.3125 12.1934C14.1985 14.0794 15.0975 13.7644 16.1395 13.3974C17.0964 13.0634 18.2845 12.6454 19.7465 14.1054C20.0435 14.4024 20.3235 14.6684 20.5835 14.9154C21.6465 15.9274 22.4865 16.7264 22.5005 17.8464C22.5114 18.8004 21.9314 19.7744 20.4995 21.2064L19.8654 20.7764L20.4025 21.2994C20.0855 21.6244 19.2425 22.4904 17.5915 22.5004H17.5615Z" fill="black"/>
</g>
</svg>
