<svg width="24" height="24" viewBox="0 0 24 24" fill="none" xmlns="http://www.w3.org/2000/svg">
<mask id="mask0_33437:4538" style="mask-type:alpha" maskUnits="userSpaceOnUse" x="2" y="2" width="21" height="21">
<path fill-rule="evenodd" clip-rule="evenodd" d="M2.00037 2.00024H22.5V22.4997H2.00037V2.00024Z" fill="white"/>
</mask>
<g mask="url(#mask0_33437:4538)">
<path fill-rule="evenodd" clip-rule="evenodd" d="M4.35945 5.06079C4.36145 5.06079 4.31145 5.11279 4.24845 5.17479C4.00645 5.40979 3.50545 5.89879 3.50045 6.92179C3.49245 8.35279 4.43345 11.0098 8.96445 15.5398C13.4745 20.0478 16.1274 20.9998 17.5615 20.9998H17.5824C18.6054 20.9948 19.0935 20.4928 19.3295 20.2518C19.4014 20.1778 19.4594 20.1238 19.5005 20.0898C20.4965 19.0878 21.0065 18.3418 21.0015 17.8638C20.9945 17.3758 20.3874 16.7988 19.5485 16.0008C19.2815 15.7468 18.9914 15.4708 18.6854 15.1648C17.8925 14.3738 17.4995 14.5088 16.6355 14.8128C15.4405 15.2318 13.8005 15.8018 11.2524 13.2528C8.70045 10.7028 9.27145 9.06479 9.68945 7.86979C9.99145 7.00579 10.1295 6.61179 9.33545 5.81779C9.02445 5.50779 8.74545 5.21379 8.48845 4.94379C7.69545 4.10979 7.12345 3.50679 6.63845 3.49979H6.63045C6.15145 3.49979 5.40745 4.01179 4.35445 5.06479C4.35745 5.06179 4.35845 5.06079 4.35945 5.06079ZM17.5625 22.4998C15.0704 22.4998 11.8215 20.5158 7.90445 16.6008C3.97245 12.6698 1.98545 9.41079 2.00045 6.91379C2.00945 5.26379 2.87445 4.41879 3.19945 4.10179C3.21645 4.08079 3.27445 4.02379 3.29445 4.00379C4.72845 2.56879 5.69545 1.98879 6.65745 1.99979C7.77445 2.01479 8.56945 2.85079 9.57545 3.90979C9.82445 4.17179 10.0945 4.45679 10.3955 4.75679C11.8555 6.21679 11.4395 7.40779 11.1055 8.36379C10.7415 9.40679 10.4265 10.3068 12.3125 12.1928C14.2004 14.0788 15.1004 13.7638 16.1395 13.3968C17.0964 13.0628 18.2845 12.6448 19.7465 14.1048C20.0424 14.4008 20.3235 14.6678 20.5825 14.9148C21.6465 15.9258 22.4865 16.7248 22.5005 17.8448C22.5124 18.7998 21.9324 19.7728 20.5005 21.2058L19.8665 20.7758L20.4025 21.2998C20.0855 21.6248 19.2414 22.4908 17.5905 22.4998H17.5625Z" fill="black"/>
</g>
</svg>
