<svg width="24" height="24" viewBox="0 0 24 24" fill="none" xmlns="http://www.w3.org/2000/svg">
<mask id="mask0_33437:4800" style="mask-type:alpha" maskUnits="userSpaceOnUse" x="2" y="2" width="10" height="14">
<path fill-rule="evenodd" clip-rule="evenodd" d="M2 2.00049H11.2953V15.1045H2V2.00049Z" fill="white"/>
</mask>
<g mask="url(#mask0_33437:4800)">
<path fill-rule="evenodd" clip-rule="evenodd" d="M6.72535 15.1045C6.51835 15.1045 6.31135 15.0185 6.16335 14.8505C0.821355 8.79849 1.58735 5.66449 3.17135 4.10049C3.18735 4.08049 3.24235 4.02649 3.25935 4.00849C4.66335 2.58349 5.62335 2.00049 6.56035 2.00049H6.58935C7.70035 2.01449 8.48535 2.85349 9.47935 3.91649C9.72335 4.17749 9.98935 4.46049 10.2834 4.75949C11.7134 6.21849 11.3074 7.40649 10.9804 8.36049C10.7444 9.05149 10.5384 9.64949 10.9124 10.5005C11.0794 10.8805 10.9074 11.3235 10.5284 11.4895C10.1464 11.6555 9.70535 11.4835 9.53935 11.1045C8.93035 9.71549 9.29435 8.65149 9.56135 7.87449C9.85035 7.03149 9.99535 6.60849 9.21335 5.81149C8.91035 5.50349 8.63635 5.21049 8.38335 4.94149C7.60435 4.10749 7.04035 3.50549 6.57035 3.50049H6.56235C6.09535 3.50049 5.36435 4.01049 4.32835 5.06149C4.32935 5.05949 4.33135 5.05849 4.33135 5.05849C4.33335 5.05849 4.28635 5.10749 4.22535 5.16749C2.08335 7.28349 5.22435 11.5205 7.28735 13.8585C7.56135 14.1685 7.53235 14.6425 7.22135 14.9175C7.07935 15.0425 6.90235 15.1045 6.72535 15.1045Z" fill="black"/>
</g>
<path fill-rule="evenodd" clip-rule="evenodd" d="M17.5524 22.5995C15.2614 22.5995 12.3234 20.8605 8.8154 17.4275C8.5194 17.1375 8.5134 16.6625 8.8034 16.3675C9.0944 16.0705 9.5694 16.0665 9.8644 16.3555C13.9234 20.3285 16.2954 21.1565 17.6174 21.0985C18.5824 21.0785 19.0384 20.5895 19.2574 20.3555C19.3184 20.2905 19.3664 20.2425 19.4024 20.2105C20.3954 19.1945 20.8964 18.4465 20.8904 17.9625C20.8834 17.4695 20.2884 16.8915 19.4644 16.0905C19.2034 15.8375 18.9214 15.5635 18.6224 15.2595C17.8554 14.4775 17.4754 14.6135 16.6404 14.9155C15.6124 15.2855 14.2024 15.7955 12.1554 14.1115C11.8344 13.8485 11.7874 13.3755 12.0514 13.0565C12.3134 12.7355 12.7894 12.6895 13.1064 12.9535C14.4974 14.0915 15.2164 13.8315 16.1324 13.5035C17.0264 13.1815 18.2514 12.7435 19.6934 14.2075C19.9834 14.5035 20.2574 14.7695 20.5094 15.0155C21.5524 16.0285 22.3754 16.8285 22.3894 17.9445C22.4024 18.8965 21.8334 19.8695 20.4314 21.3015L19.8054 20.8685L20.3534 21.3795C20.0504 21.7035 19.2464 22.5635 17.6514 22.5985C17.6174 22.5995 17.5844 22.5995 17.5524 22.5995Z" fill="black"/>
<path fill-rule="evenodd" clip-rule="evenodd" d="M4.63941 22.3994C4.45541 22.3994 4.27141 22.3324 4.12641 22.1964C3.82441 21.9134 3.80941 21.4384 4.09241 21.1364L19.0924 5.13643C19.3744 4.83343 19.8504 4.81843 20.1524 5.10243C20.4544 5.38543 20.4694 5.86043 20.1864 6.16243L5.18641 22.1624C5.03841 22.3204 4.83941 22.3994 4.63941 22.3994Z" fill="black"/>
</svg>
