<svg width="73" height="15" viewBox="0 0 73 15" fill="none" xmlns="http://www.w3.org/2000/svg">
<path fill-rule="evenodd" clip-rule="evenodd" d="M30.963 0.598153C29.2421 0.879339 28.0265 1.97177 27.8803 3.36816C27.7198 4.90236 28.4896 5.81909 31.3672 7.52044C33.5271 8.79744 34.2992 9.39552 34.613 10.0346C35.5908 12.0261 33.3664 14.23 30.8882 13.7253C29.5691 13.4566 28.8424 12.9073 28.1372 11.6463L27.739 10.9343L27.7377 11.9875C27.7362 13.2581 27.8512 13.4537 28.881 13.9323C30.625 14.7427 32.7546 14.6618 34.3436 13.7247C35.5325 13.0237 36.1451 11.8433 36.0432 10.4496C35.9222 8.79471 35.023 7.83986 31.9026 6.05306C29.2316 4.52347 28.524 3.1355 29.7997 1.92839C30.6549 1.11923 32.0935 0.909024 33.1382 1.44061C33.6183 1.68478 34.2221 2.27617 34.665 2.93603L34.9578 3.37222V2.64006C34.9578 1.94252 34.9388 1.88972 34.5553 1.52255C34.0572 1.04551 33.4102 0.729818 32.6335 0.58457C31.9596 0.458601 31.8093 0.459806 30.963 0.598153ZM42.8541 0.640325C38.4519 1.42594 36.1386 6.723 38.3697 10.909C39.1343 12.3435 40.638 13.6507 42.1283 14.1762C43.0616 14.5053 44.8723 14.5821 45.8374 14.3335C48.1929 13.7269 50.0175 11.8891 50.6889 9.44679C50.9515 8.49172 50.9517 6.48081 50.6894 5.51216C49.9867 2.9173 48.0477 1.07278 45.5636 0.636492C44.4879 0.447538 43.9303 0.448304 42.8541 0.640325ZM53.0936 7.34693L53.1222 14.2205L56.6496 14.2494L60.1769 14.2783V13.8934V13.5085H57.3995H54.622V6.99093V0.473389H53.8435H53.065L53.0936 7.34693ZM64.0738 0.633425C62.1252 0.997421 60.3984 2.31145 59.5338 4.08816C57.6149 8.031 59.3261 12.6404 63.2627 14.1321C64.2626 14.511 66.0077 14.6038 67.0561 14.3337C70.429 13.4651 72.5363 10.2026 72.0815 6.55344C71.7915 4.22728 70.7085 2.47641 68.8981 1.40688C67.5668 0.620499 65.7246 0.325073 64.0738 0.633425ZM2.01734 1.23534C0.681285 1.68675 0.505306 1.7723 0.769274 1.84142C0.938254 1.88578 1.17578 2.04636 1.29699 2.19829C1.51018 2.46557 1.51741 2.65518 1.51741 7.9988C1.51741 11.8516 1.47985 13.5952 1.39331 13.7622C1.3251 13.8937 1.16256 14.0865 1.03224 14.1907C0.805048 14.3722 0.85793 14.38 2.32286 14.3824L3.85045 14.3848V7.53863C3.85045 2.13016 3.82135 0.694328 3.71158 0.701119C3.63526 0.70583 2.8728 0.946267 2.01734 1.23534ZM8.35746 1.17926C9.7994 1.87493 10.1778 2.31473 11.0482 4.30724C11.1399 4.51711 11.1696 4.12716 11.1753 2.63678L11.1829 0.692466L9.26646 0.692794L7.35003 0.693233L8.35746 1.17926ZM15.3886 0.946157C13.6513 1.53011 12.8494 2.60698 12.8494 4.35631C12.8494 5.38838 13.091 6.05624 13.6807 6.65465C14.4646 7.44979 15.5157 7.8771 18.1473 8.47047C18.9859 8.65954 19.8278 8.87839 20.0183 8.95682C20.427 9.12518 21.1393 9.72064 21.3114 10.0377C21.5046 10.3936 21.6348 11.8645 21.5127 12.3117C21.2706 13.1986 20.3272 13.994 19.2375 14.23C19.0542 14.2698 18.9613 14.3231 19.0309 14.3486C19.1007 14.3742 19.4959 14.3177 19.909 14.2233C22.0001 13.7452 23.2153 12.2979 23.2223 10.2771C23.2261 9.16955 22.9327 8.46105 22.1843 7.77085C21.2733 6.93069 20.4711 6.61565 17.9658 6.11474C15.7101 5.66355 14.5217 4.97849 14.3402 4.02485C14.2987 3.80676 14.2922 3.32983 14.3257 2.96495C14.4104 2.04472 14.8026 1.51433 15.7423 1.04934C16.5782 0.635615 16.436 0.59421 15.3886 0.946157ZM19.0235 0.897522C20.5967 1.42692 21.7318 2.46316 22.1899 3.78835L22.3882 4.36201L22.396 2.52724L22.4037 0.692466L20.4318 0.700134L18.4598 0.707801L19.0235 0.897522ZM46.2114 1.60032C47.1194 2.00846 48.0817 2.9885 48.5702 4.00272C49.57 6.07826 49.5438 8.97314 48.507 10.9982C48.1051 11.7834 47.1433 12.8322 46.4686 13.2213C45.4281 13.8213 44.1666 13.984 43.0603 13.6608C42.206 13.4113 41.636 13.0533 40.9293 12.3229C39.7763 11.1311 39.173 9.48502 39.1713 7.52614C39.1685 4.48173 40.4464 2.2546 42.6601 1.44609C43.535 1.12657 45.3307 1.20456 46.2114 1.60032ZM67.5176 1.6517C69.1856 2.44651 70.2572 4.23242 70.5067 6.63307C70.6846 8.34604 70.2802 10.2145 69.4571 11.482C68.9209 12.3076 67.8498 13.2292 67.0966 13.513C63.6546 14.8098 60.3991 11.8945 60.3991 7.5153C60.3991 4.4882 61.6866 2.24266 63.875 1.45332C64.3347 1.28748 64.6948 1.25046 65.6207 1.27401C66.6708 1.30073 66.8601 1.33841 67.5176 1.6517ZM7.84008 5.26406C7.43435 6.31618 7.15405 6.61971 6.25627 6.97943L5.63646 7.22787L6.22561 7.46874C6.94763 7.76373 7.33392 8.1481 7.74553 8.98114L8.06105 9.61986L8.06661 7.29216C8.06972 6.01199 8.04594 4.96447 8.01384 4.96447C7.98184 4.96447 7.90363 5.09931 7.84008 5.26406ZM12.8604 12.2214L12.8494 14.3848L15.2102 14.3767L17.571 14.3685L16.8183 14.1091C14.9155 13.4533 13.542 12.1512 13.0137 10.5021C12.8869 10.1066 12.8701 10.2952 12.8604 12.2214ZM11.2472 10.598C11.126 11.2348 10.418 12.4927 9.88472 13.0185C9.34601 13.5498 8.6632 13.9397 7.84808 14.182C7.37936 14.3213 7.46424 14.3318 9.29035 14.3601C10.3575 14.3767 11.2949 14.3658 11.3734 14.3362C11.4826 14.2949 11.5162 13.8047 11.5162 12.2522C11.5162 10.3542 11.4136 9.72348 11.2472 10.598Z" fill="white"/>
</svg>
