<svg width="32" height="20" viewBox="0 0 32 20" fill="none" xmlns="http://www.w3.org/2000/svg">
<path fill-rule="evenodd" clip-rule="evenodd" d="M1.91715 1.06595C0.0230315 1.70971 -0.226451 1.83171 0.147773 1.93028C0.387333 1.99355 0.724071 2.22256 0.895905 2.43923C1.19815 2.82039 1.20839 3.0908 1.20839 10.7114C1.20839 16.2059 1.15515 18.6925 1.03246 18.9306C0.935753 19.1182 0.705328 19.3932 0.520579 19.5417C0.198488 19.8006 0.273459 19.8117 2.35028 19.8151L4.51592 19.8185V10.0551C4.51592 2.34206 4.47466 0.294404 4.31904 0.304089C4.21084 0.310806 3.12991 0.653697 1.91715 1.06595ZM10.9054 0.985964C12.9497 1.97808 13.4861 2.60528 14.7201 5.44682C14.8501 5.74613 14.8921 5.19 14.9003 3.06455L14.911 0.291748L12.1941 0.292217L9.47722 0.292842L10.9054 0.985964ZM20.8734 0.65354C18.4104 1.48632 17.2736 3.02206 17.2736 5.5168C17.2736 6.98865 17.6161 7.94109 18.4521 8.79449C19.5635 9.92845 21.0536 10.5378 24.7843 11.3841C25.9733 11.6537 27.1669 11.9658 27.4368 12.0776C28.0163 12.3177 29.0262 13.1669 29.2701 13.6192C29.544 14.1267 29.7286 16.2244 29.5555 16.862C29.2122 18.1269 27.8748 19.2612 26.3299 19.5978C26.07 19.6545 25.9383 19.7306 26.0371 19.767C26.136 19.8034 26.6962 19.7229 27.282 19.5883C30.2465 18.9064 31.9692 16.8423 31.9792 13.9605C31.9845 12.381 31.5686 11.3706 30.5076 10.3863C29.2161 9.18815 28.0788 8.73888 24.5271 8.02451C21.3292 7.38106 19.6444 6.4041 19.3871 5.0441C19.3283 4.73308 19.319 4.05292 19.3666 3.53257C19.4866 2.22021 20.0426 1.46382 21.3749 0.800694C22.5599 0.210673 22.3583 0.151624 20.8734 0.65354ZM26.0265 0.584181C28.2569 1.33916 29.8661 2.81695 30.5155 4.70683L30.7966 5.52493L30.8077 2.90834L30.8187 0.291748L28.023 0.302683L25.2274 0.313618L26.0265 0.584181ZM10.172 6.81135C9.59677 8.31179 9.19939 8.74466 7.92662 9.25767L7.04792 9.61196L7.88315 9.95548C8.90675 10.3762 9.45438 10.9243 10.0379 12.1123L10.4852 13.0232L10.4931 9.70366C10.4975 7.87798 10.4638 6.38411 10.4183 6.38411C10.3729 6.38411 10.2621 6.57641 10.172 6.81135ZM17.2891 16.7333L17.2736 19.8185L20.6205 19.807L23.9674 19.7953L22.9003 19.4253C20.2028 18.4901 18.2556 16.6332 17.5065 14.2814C17.3268 13.7174 17.303 13.9863 17.2891 16.7333ZM15.0022 14.4182C14.8304 15.3263 13.8266 17.1202 13.0706 17.8701C12.3069 18.6277 11.3389 19.1838 10.1833 19.5294C9.5188 19.7279 9.63913 19.7429 12.228 19.7834C13.7409 19.807 15.0698 19.7915 15.1811 19.7492C15.336 19.6903 15.3835 18.9912 15.3835 16.7772C15.3835 14.0705 15.2382 13.171 15.0022 14.4182Z" fill="white"/>
<path fill-rule="evenodd" clip-rule="evenodd" d="M1.91715 1.06595C0.0230315 1.70971 -0.226451 1.83171 0.147773 1.93028C0.387333 1.99355 0.724071 2.22256 0.895905 2.43923C1.19815 2.82039 1.20839 3.0908 1.20839 10.7114C1.20839 16.2059 1.15515 18.6925 1.03246 18.9306C0.935753 19.1182 0.705328 19.3932 0.520579 19.5417C0.198488 19.8006 0.273459 19.8117 2.35028 19.8151L4.51592 19.8185V10.0551C4.51592 2.34206 4.47466 0.294404 4.31904 0.304089C4.21084 0.310806 3.12991 0.653697 1.91715 1.06595ZM10.9054 0.985964C12.9497 1.97808 13.4861 2.60528 14.7201 5.44682C14.8501 5.74613 14.8921 5.19 14.9003 3.06455L14.911 0.291748L12.1941 0.292217L9.47722 0.292842L10.9054 0.985964ZM20.8734 0.65354C18.4104 1.48632 17.2736 3.02206 17.2736 5.5168C17.2736 6.98865 17.6161 7.94109 18.4521 8.79449C19.5635 9.92845 21.0536 10.5378 24.7843 11.3841C25.9733 11.6537 27.1669 11.9658 27.4368 12.0776C28.0163 12.3177 29.0262 13.1669 29.2701 13.6192C29.544 14.1267 29.7286 16.2244 29.5555 16.862C29.2122 18.1269 27.8748 19.2612 26.3299 19.5978C26.07 19.6545 25.9383 19.7306 26.0371 19.767C26.136 19.8034 26.6962 19.7229 27.282 19.5883C30.2465 18.9064 31.9692 16.8423 31.9792 13.9605C31.9845 12.381 31.5686 11.3706 30.5076 10.3863C29.2161 9.18815 28.0788 8.73888 24.5271 8.02451C21.3292 7.38106 19.6444 6.4041 19.3871 5.0441C19.3283 4.73308 19.319 4.05292 19.3666 3.53257C19.4866 2.22021 20.0426 1.46382 21.3749 0.800694C22.5599 0.210673 22.3583 0.151624 20.8734 0.65354ZM26.0265 0.584181C28.2569 1.33916 29.8661 2.81695 30.5155 4.70683L30.7966 5.52493L30.8077 2.90834L30.8187 0.291748L28.023 0.302683L25.2274 0.313618L26.0265 0.584181ZM10.172 6.81135C9.59677 8.31179 9.19939 8.74466 7.92662 9.25767L7.04792 9.61196L7.88315 9.95548C8.90675 10.3762 9.45438 10.9243 10.0379 12.1123L10.4852 13.0232L10.4931 9.70366C10.4975 7.87798 10.4638 6.38411 10.4183 6.38411C10.3729 6.38411 10.2621 6.57641 10.172 6.81135ZM17.2891 16.7333L17.2736 19.8185L20.6205 19.807L23.9674 19.7953L22.9003 19.4253C20.2028 18.4901 18.2556 16.6332 17.5065 14.2814C17.3268 13.7174 17.303 13.9863 17.2891 16.7333ZM15.0022 14.4182C14.8304 15.3263 13.8266 17.1202 13.0706 17.8701C12.3069 18.6277 11.3389 19.1838 10.1833 19.5294C9.5188 19.7279 9.63913 19.7429 12.228 19.7834C13.7409 19.807 15.0698 19.7915 15.1811 19.7492C15.336 19.6903 15.3835 18.9912 15.3835 16.7772C15.3835 14.0705 15.2382 13.171 15.0022 14.4182Z" fill="#8D1919"/>
</svg>
