<svg width="184" height="37" viewBox="0 0 184 37" fill="none" xmlns="http://www.w3.org/2000/svg">
<path fill-rule="evenodd" clip-rule="evenodd" d="M77.9938 0.820473C73.5638 1.54273 70.4345 4.34877 70.0581 7.93559C69.6449 11.8764 71.6265 14.2311 79.0342 18.6012C84.5941 21.8814 86.5817 23.4176 87.3897 25.0591C89.9067 30.1746 84.1806 35.8356 77.801 34.5391C74.4054 33.8489 72.5348 32.4381 70.7193 29.1991L69.6943 27.3702L69.6909 30.0755C69.6872 33.3391 69.9832 33.8416 72.634 35.0709C77.1235 37.1524 82.6056 36.9447 86.6961 34.5377C89.7565 32.7369 91.3335 29.705 91.0712 26.1252C90.7598 21.8743 88.445 19.4217 80.4124 14.8321C73.5366 10.9031 71.7151 7.33798 74.9992 4.23735C77.2004 2.15892 80.9037 1.61898 83.5931 2.98444C84.8289 3.6116 86.3833 5.13068 87.5235 6.82561L88.2771 7.946V6.06537C88.2771 4.27365 88.2282 4.13803 87.241 3.1949C85.9589 1.96956 84.2933 1.15867 82.2939 0.785584C80.5591 0.462016 80.1721 0.465111 77.9938 0.820473ZM108.604 0.928798C97.2717 2.94674 91.3169 16.5529 97.0601 27.3052C99.0283 30.99 102.899 34.3475 106.736 35.6975C109.138 36.5427 113.799 36.7399 116.284 36.1015C122.347 34.5433 127.044 29.8226 128.772 23.5493C129.448 21.0961 129.449 15.9308 128.774 13.4427C126.965 6.7775 121.974 2.03962 115.579 0.91895C112.81 0.433598 111.374 0.435568 108.604 0.928798ZM134.963 18.1556L135.036 35.8111L144.117 35.8854L153.197 35.9597V34.971V33.9823H146.047H138.897V17.2411V0.5H136.893H134.889L134.963 18.1556ZM163.228 0.911072C158.212 1.84604 153.767 5.22128 151.541 9.785C146.602 19.9127 151.007 31.7525 161.14 35.5841C163.714 36.5573 168.206 36.7956 170.905 36.1021C179.588 33.8708 185.013 25.4907 183.842 16.1174C183.095 10.1423 180.307 5.64501 175.647 2.89778C172.22 0.877872 167.478 0.119034 163.228 0.911072ZM3.48113 2.45716C0.0418203 3.61666 -0.411187 3.83641 0.268324 4.01395C0.703314 4.1279 1.31476 4.54038 1.62678 4.93063C2.17559 5.61716 2.19418 6.1042 2.19418 19.83C2.19418 29.7264 2.09751 34.2051 1.87473 34.6339C1.69913 34.9718 1.28073 35.467 0.945262 35.7346C0.360413 36.2008 0.496544 36.2208 4.2676 36.227L8.19996 36.2332V18.6479C8.19996 4.75562 8.12503 1.06751 7.84248 1.08495C7.646 1.09705 5.68325 1.71465 3.48113 2.45716ZM19.802 2.31311C23.5139 4.10005 24.4879 5.22972 26.7287 10.3477C26.9646 10.8868 27.041 9.88516 27.0558 6.05693L27.0753 1.06273L22.142 1.06357L17.2086 1.0647L19.802 2.31311ZM37.9017 1.71437C33.4294 3.21431 31.3651 5.9804 31.3651 10.4738C31.3651 13.1248 31.9872 14.8403 33.5052 16.3773C35.5231 18.4198 38.2289 19.5174 45.0031 21.0415C47.1621 21.5271 49.3293 22.0893 49.8195 22.2908C50.8716 22.7232 52.7054 24.2527 53.1484 25.0673C53.6457 25.9814 53.9809 29.7596 53.6666 30.9081C53.0431 33.1863 50.6148 35.2293 47.8095 35.8356C47.3377 35.9377 47.0986 36.0748 47.2779 36.1403C47.4575 36.2059 48.4747 36.061 49.5383 35.8184C54.9212 34.5903 58.0494 30.8726 58.0674 25.682C58.0771 22.8372 57.3218 21.0173 55.3954 19.2444C53.0503 17.0864 50.9852 16.2772 44.5361 14.9905C38.7294 13.8316 35.6701 12.0719 35.2028 9.62237C35.0962 9.06217 35.0793 7.83712 35.1656 6.8999C35.3836 4.53616 36.3931 3.1738 38.8123 1.97941C40.9641 0.916699 40.598 0.810344 37.9017 1.71437ZM47.2587 1.58944C51.3086 2.94927 54.2306 5.61097 55.4097 9.0149L55.9202 10.4884L55.9402 5.77557L55.9602 1.06273L50.8839 1.08242L45.8076 1.10212L47.2587 1.58944ZM117.246 3.39467C119.584 4.44303 122.061 6.96039 123.319 9.56553C125.892 14.8968 125.825 22.3327 123.156 27.5343C122.121 29.5511 119.645 32.2451 117.908 33.2445C115.23 34.7858 111.983 35.2037 109.135 34.3736C106.936 33.7327 105.468 32.8132 103.649 30.9371C100.681 27.8755 99.1281 23.6475 99.1235 18.6159C99.1164 10.7959 102.406 5.07525 108.104 2.99851C110.357 2.17777 114.979 2.3781 117.246 3.39467ZM172.093 3.52663C176.387 5.5682 179.146 10.1556 179.788 16.3219C180.246 20.7219 179.205 25.5214 177.086 28.777C175.706 30.8977 172.948 33.2648 171.01 33.9938C162.149 37.3249 153.769 29.8367 153.769 18.588C153.769 10.8125 157.083 5.04458 162.716 3.01708C163.9 2.59109 164.827 2.49599 167.21 2.55649C169.913 2.62514 170.401 2.72193 172.093 3.52663ZM18.4701 12.8054C17.4257 15.5079 16.7042 16.2876 14.3931 17.2116L12.7975 17.8497L14.3141 18.4684C16.1728 19.2262 17.1672 20.2135 18.2268 22.3532L19.039 23.9939L19.0533 18.0149C19.0613 14.7266 19.0001 12.0359 18.9174 12.0359C18.8351 12.0359 18.6337 12.3823 18.4701 12.8054ZM31.3934 30.6762L31.3651 36.2332L37.4424 36.2123L43.5197 36.1912L41.5821 35.525C36.684 33.8405 33.1483 30.4959 31.7881 26.26C31.4618 25.2442 31.4186 25.7285 31.3934 30.6762ZM27.2409 26.5064C26.9289 28.142 25.1062 31.3732 23.7335 32.7237C22.3467 34.0883 20.589 35.09 18.4907 35.7124C17.2841 36.07 17.5026 36.097 22.2034 36.1699C24.9507 36.2123 27.3636 36.1845 27.5658 36.1082C27.8469 36.0022 27.9333 34.7431 27.9333 30.7553C27.9333 25.8801 27.6693 24.26 27.2409 26.5064Z" fill="white"/>
<path fill-rule="evenodd" clip-rule="evenodd" d="M77.9938 0.820473C73.5638 1.54273 70.4345 4.34877 70.0581 7.93559C69.6449 11.8764 71.6265 14.2311 79.0342 18.6012C84.5941 21.8814 86.5817 23.4176 87.3897 25.0591C89.9067 30.1746 84.1806 35.8356 77.801 34.5391C74.4054 33.8489 72.5348 32.4381 70.7193 29.1991L69.6943 27.3702L69.6909 30.0755C69.6872 33.3391 69.9832 33.8416 72.634 35.0709C77.1235 37.1524 82.6056 36.9447 86.6961 34.5377C89.7565 32.7369 91.3335 29.705 91.0712 26.1252C90.7598 21.8743 88.445 19.4217 80.4124 14.8321C73.5366 10.9031 71.7151 7.33798 74.9992 4.23735C77.2004 2.15892 80.9037 1.61898 83.5931 2.98444C84.8289 3.6116 86.3833 5.13068 87.5235 6.82561L88.2771 7.946V6.06537C88.2771 4.27365 88.2282 4.13803 87.241 3.1949C85.9589 1.96956 84.2933 1.15867 82.2939 0.785584C80.5591 0.462016 80.1721 0.465111 77.9938 0.820473ZM108.604 0.928798C97.2717 2.94674 91.3169 16.5529 97.0601 27.3052C99.0283 30.99 102.899 34.3475 106.736 35.6975C109.138 36.5427 113.799 36.7399 116.284 36.1015C122.347 34.5433 127.044 29.8226 128.772 23.5493C129.448 21.0961 129.449 15.9308 128.774 13.4427C126.965 6.7775 121.974 2.03962 115.579 0.91895C112.81 0.433598 111.374 0.435568 108.604 0.928798ZM134.963 18.1556L135.036 35.8111L144.117 35.8854L153.197 35.9597V34.971V33.9823H146.047H138.897V17.2411V0.5H136.893H134.889L134.963 18.1556ZM163.228 0.911072C158.212 1.84604 153.767 5.22128 151.541 9.785C146.602 19.9127 151.007 31.7525 161.14 35.5841C163.714 36.5573 168.206 36.7956 170.905 36.1021C179.588 33.8708 185.013 25.4907 183.842 16.1174C183.095 10.1423 180.307 5.64501 175.647 2.89778C172.22 0.877872 167.478 0.119034 163.228 0.911072ZM3.48113 2.45716C0.0418203 3.61666 -0.411187 3.83641 0.268324 4.01395C0.703314 4.1279 1.31476 4.54038 1.62678 4.93063C2.17559 5.61716 2.19418 6.1042 2.19418 19.83C2.19418 29.7264 2.09751 34.2051 1.87473 34.6339C1.69913 34.9718 1.28073 35.467 0.945262 35.7346C0.360413 36.2008 0.496544 36.2208 4.2676 36.227L8.19996 36.2332V18.6479C8.19996 4.75562 8.12503 1.06751 7.84248 1.08495C7.646 1.09705 5.68325 1.71465 3.48113 2.45716ZM19.802 2.31311C23.5139 4.10005 24.4879 5.22972 26.7287 10.3477C26.9646 10.8868 27.041 9.88516 27.0558 6.05693L27.0753 1.06273L22.142 1.06357L17.2086 1.0647L19.802 2.31311ZM37.9017 1.71437C33.4294 3.21431 31.3651 5.9804 31.3651 10.4738C31.3651 13.1248 31.9872 14.8403 33.5052 16.3773C35.5231 18.4198 38.2289 19.5174 45.0031 21.0415C47.1621 21.5271 49.3293 22.0893 49.8195 22.2908C50.8716 22.7232 52.7054 24.2527 53.1484 25.0673C53.6457 25.9814 53.9809 29.7596 53.6666 30.9081C53.0431 33.1863 50.6148 35.2293 47.8095 35.8356C47.3377 35.9377 47.0986 36.0748 47.2779 36.1403C47.4575 36.2059 48.4747 36.061 49.5383 35.8184C54.9212 34.5903 58.0494 30.8726 58.0674 25.682C58.0771 22.8372 57.3218 21.0173 55.3954 19.2444C53.0503 17.0864 50.9852 16.2772 44.5361 14.9905C38.7294 13.8316 35.6701 12.0719 35.2028 9.62237C35.0962 9.06217 35.0793 7.83712 35.1656 6.8999C35.3836 4.53616 36.3931 3.1738 38.8123 1.97941C40.9641 0.916699 40.598 0.810344 37.9017 1.71437ZM47.2587 1.58944C51.3086 2.94927 54.2306 5.61097 55.4097 9.0149L55.9202 10.4884L55.9402 5.77557L55.9602 1.06273L50.8839 1.08242L45.8076 1.10212L47.2587 1.58944ZM117.246 3.39467C119.584 4.44303 122.061 6.96039 123.319 9.56553C125.892 14.8968 125.825 22.3327 123.156 27.5343C122.121 29.5511 119.645 32.2451 117.908 33.2445C115.23 34.7858 111.983 35.2037 109.135 34.3736C106.936 33.7327 105.468 32.8132 103.649 30.9371C100.681 27.8755 99.1281 23.6475 99.1235 18.6159C99.1164 10.7959 102.406 5.07525 108.104 2.99851C110.357 2.17777 114.979 2.3781 117.246 3.39467ZM172.093 3.52663C176.387 5.5682 179.146 10.1556 179.788 16.3219C180.246 20.7219 179.205 25.5214 177.086 28.777C175.706 30.8977 172.948 33.2648 171.01 33.9938C162.149 37.3249 153.769 29.8367 153.769 18.588C153.769 10.8125 157.083 5.04458 162.716 3.01708C163.9 2.59109 164.827 2.49599 167.21 2.55649C169.913 2.62514 170.401 2.72193 172.093 3.52663ZM18.4701 12.8054C17.4257 15.5079 16.7042 16.2876 14.3931 17.2116L12.7975 17.8497L14.3141 18.4684C16.1728 19.2262 17.1672 20.2135 18.2268 22.3532L19.039 23.9939L19.0533 18.0149C19.0613 14.7266 19.0001 12.0359 18.9174 12.0359C18.8351 12.0359 18.6337 12.3823 18.4701 12.8054ZM31.3934 30.6762L31.3651 36.2332L37.4424 36.2123L43.5197 36.1912L41.5821 35.525C36.684 33.8405 33.1483 30.4959 31.7881 26.26C31.4618 25.2442 31.4186 25.7285 31.3934 30.6762ZM27.2409 26.5064C26.9289 28.142 25.1062 31.3732 23.7335 32.7237C22.3467 34.0883 20.589 35.09 18.4907 35.7124C17.2841 36.07 17.5026 36.097 22.2034 36.1699C24.9507 36.2123 27.3636 36.1845 27.5658 36.1082C27.8469 36.0022 27.9333 34.7431 27.9333 30.7553C27.9333 25.8801 27.6693 24.26 27.2409 26.5064Z" fill="#8D1919"/>
</svg>
