<svg width="18" height="17" viewBox="0 0 18 17" fill="none" xmlns="http://www.w3.org/2000/svg">
<path d="M0.81488 3.87727H2.075V4.48542H0.0478516V0.661233H0.81488V3.87727Z" fill="white"/>
<path d="M0.81488 3.87727H2.075V4.48542H0.0478516V0.661233H0.81488V3.87727Z" fill="black" fill-opacity="0.8"/>
<path d="M4.93483 3.75674H3.41173L3.15971 4.48542H2.35433L3.7295 0.655754H4.62254L5.99771 4.48542H5.18685L4.93483 3.75674ZM4.72664 3.14312L4.17328 1.54332L3.61993 3.14312H4.72664Z" fill="white"/>
<path d="M4.93483 3.75674H3.41173L3.15971 4.48542H2.35433L3.7295 0.655754H4.62254L5.99771 4.48542H5.18685L4.93483 3.75674ZM4.72664 3.14312L4.17328 1.54332L3.61993 3.14312H4.72664Z" fill="black" fill-opacity="0.8"/>
<path d="M7.85951 4.52377C7.59288 4.52377 7.35181 4.47811 7.13631 4.3868C6.92447 4.29549 6.75645 4.164 6.63227 3.99233C6.50808 3.82066 6.44416 3.61794 6.44051 3.38418H7.26232C7.27328 3.54124 7.32807 3.66543 7.42669 3.75674C7.52896 3.84805 7.66775 3.89371 7.84307 3.89371C8.02205 3.89371 8.16267 3.85171 8.26494 3.7677C8.36721 3.68004 8.41834 3.56681 8.41834 3.42801C8.41834 3.31479 8.38365 3.22165 8.31425 3.1486C8.24485 3.07555 8.15719 3.01893 8.05127 2.97875C7.949 2.93492 7.80655 2.88744 7.62392 2.83631C7.37555 2.76326 7.17284 2.69203 7.01578 2.62263C6.86237 2.54958 6.72906 2.44183 6.61583 2.29939C6.50625 2.15329 6.45147 1.9597 6.45147 1.71864C6.45147 1.49218 6.50808 1.29494 6.62131 1.12693C6.73454 0.958913 6.89342 0.831075 7.09796 0.743414C7.3025 0.652102 7.53626 0.606445 7.79924 0.606445C8.19372 0.606445 8.51331 0.703237 8.75803 0.89682C9.0064 1.08675 9.14337 1.35338 9.16894 1.69672H8.32521C8.3179 1.56523 8.26129 1.45748 8.15536 1.37347C8.05309 1.28581 7.91612 1.24198 7.74446 1.24198C7.5947 1.24198 7.47417 1.28033 7.38286 1.35704C7.2952 1.43374 7.25137 1.54514 7.25137 1.69124C7.25137 1.79351 7.28424 1.87935 7.34998 1.94874C7.41938 2.01449 7.50339 2.06928 7.60201 2.11311C7.70428 2.15329 7.84673 2.20077 8.02935 2.25556C8.27772 2.32861 8.48044 2.40166 8.6375 2.47471C8.79455 2.54776 8.9297 2.65733 9.04292 2.80343C9.15615 2.94953 9.21277 3.14129 9.21277 3.3787C9.21277 3.58325 9.15981 3.77318 9.05388 3.9485C8.94796 4.12382 8.79273 4.26444 8.58819 4.37036C8.38365 4.47263 8.14075 4.52377 7.85951 4.52377Z" fill="white"/>
<path d="M7.85951 4.52377C7.59288 4.52377 7.35181 4.47811 7.13631 4.3868C6.92447 4.29549 6.75645 4.164 6.63227 3.99233C6.50808 3.82066 6.44416 3.61794 6.44051 3.38418H7.26232C7.27328 3.54124 7.32807 3.66543 7.42669 3.75674C7.52896 3.84805 7.66775 3.89371 7.84307 3.89371C8.02205 3.89371 8.16267 3.85171 8.26494 3.7677C8.36721 3.68004 8.41834 3.56681 8.41834 3.42801C8.41834 3.31479 8.38365 3.22165 8.31425 3.1486C8.24485 3.07555 8.15719 3.01893 8.05127 2.97875C7.949 2.93492 7.80655 2.88744 7.62392 2.83631C7.37555 2.76326 7.17284 2.69203 7.01578 2.62263C6.86237 2.54958 6.72906 2.44183 6.61583 2.29939C6.50625 2.15329 6.45147 1.9597 6.45147 1.71864C6.45147 1.49218 6.50808 1.29494 6.62131 1.12693C6.73454 0.958913 6.89342 0.831075 7.09796 0.743414C7.3025 0.652102 7.53626 0.606445 7.79924 0.606445C8.19372 0.606445 8.51331 0.703237 8.75803 0.89682C9.0064 1.08675 9.14337 1.35338 9.16894 1.69672H8.32521C8.3179 1.56523 8.26129 1.45748 8.15536 1.37347C8.05309 1.28581 7.91612 1.24198 7.74446 1.24198C7.5947 1.24198 7.47417 1.28033 7.38286 1.35704C7.2952 1.43374 7.25137 1.54514 7.25137 1.69124C7.25137 1.79351 7.28424 1.87935 7.34998 1.94874C7.41938 2.01449 7.50339 2.06928 7.60201 2.11311C7.70428 2.15329 7.84673 2.20077 8.02935 2.25556C8.27772 2.32861 8.48044 2.40166 8.6375 2.47471C8.79455 2.54776 8.9297 2.65733 9.04292 2.80343C9.15615 2.94953 9.21277 3.14129 9.21277 3.3787C9.21277 3.58325 9.15981 3.77318 9.05388 3.9485C8.94796 4.12382 8.79273 4.26444 8.58819 4.37036C8.38365 4.47263 8.14075 4.52377 7.85951 4.52377Z" fill="black" fill-opacity="0.8"/>
<path d="M12.5076 0.661233V1.28033H11.4885V4.48542H10.7215V1.28033H9.70243V0.661233H12.5076Z" fill="white"/>
<path d="M12.5076 0.661233V1.28033H11.4885V4.48542H10.7215V1.28033H9.70243V0.661233H12.5076Z" fill="black" fill-opacity="0.8"/>
<path d="M2.4092 6.62095V7.24005H0.81488V8.22075H2.03665V8.8289H0.81488V10.4451H0.0478516V6.62095H2.4092Z" fill="white"/>
<path d="M2.4092 6.62095V7.24005H0.81488V8.22075H2.03665V8.8289H0.81488V10.4451H0.0478516V6.62095H2.4092Z" fill="black" fill-opacity="0.8"/>
<path d="M4.75561 10.4835C4.39767 10.4835 4.06894 10.3995 3.76944 10.2315C3.46993 10.0634 3.23252 9.83151 3.0572 9.53566C2.88188 9.23615 2.79421 8.89829 2.79421 8.52208C2.79421 8.14953 2.88188 7.81532 3.0572 7.51947C3.23252 7.21996 3.46993 6.9862 3.76944 6.81819C4.06894 6.65017 4.39767 6.56616 4.75561 6.56616C5.11721 6.56616 5.44594 6.65017 5.74179 6.81819C6.0413 6.9862 6.27689 7.21996 6.44856 7.51947C6.62388 7.81532 6.71154 8.14953 6.71154 8.52208C6.71154 8.89829 6.62388 9.23615 6.44856 9.53566C6.27689 9.83151 6.0413 10.0634 5.74179 10.2315C5.44229 10.3995 5.11356 10.4835 4.75561 10.4835ZM4.75561 9.79864C4.98572 9.79864 5.18844 9.7475 5.36376 9.64523C5.53908 9.53931 5.67605 9.38956 5.77467 9.19597C5.87328 9.00239 5.92259 8.77776 5.92259 8.52208C5.92259 8.26641 5.87328 8.0436 5.77467 7.85367C5.67605 7.66009 5.53908 7.51216 5.36376 7.40989C5.18844 7.30762 4.98572 7.25649 4.75561 7.25649C4.52551 7.25649 4.32097 7.30762 4.14199 7.40989C3.96667 7.51216 3.8297 7.66009 3.73108 7.85367C3.63247 8.0436 3.58316 8.26641 3.58316 8.52208C3.58316 8.77776 3.63247 9.00239 3.73108 9.19597C3.8297 9.38956 3.96667 9.53931 4.14199 9.64523C4.32097 9.7475 4.52551 9.79864 4.75561 9.79864Z" fill="white"/>
<path d="M4.75561 10.4835C4.39767 10.4835 4.06894 10.3995 3.76944 10.2315C3.46993 10.0634 3.23252 9.83151 3.0572 9.53566C2.88188 9.23615 2.79421 8.89829 2.79421 8.52208C2.79421 8.14953 2.88188 7.81532 3.0572 7.51947C3.23252 7.21996 3.46993 6.9862 3.76944 6.81819C4.06894 6.65017 4.39767 6.56616 4.75561 6.56616C5.11721 6.56616 5.44594 6.65017 5.74179 6.81819C6.0413 6.9862 6.27689 7.21996 6.44856 7.51947C6.62388 7.81532 6.71154 8.14953 6.71154 8.52208C6.71154 8.89829 6.62388 9.23615 6.44856 9.53566C6.27689 9.83151 6.0413 10.0634 5.74179 10.2315C5.44229 10.3995 5.11356 10.4835 4.75561 10.4835ZM4.75561 9.79864C4.98572 9.79864 5.18844 9.7475 5.36376 9.64523C5.53908 9.53931 5.67605 9.38956 5.77467 9.19597C5.87328 9.00239 5.92259 8.77776 5.92259 8.52208C5.92259 8.26641 5.87328 8.0436 5.77467 7.85367C5.67605 7.66009 5.53908 7.51216 5.36376 7.40989C5.18844 7.30762 4.98572 7.25649 4.75561 7.25649C4.52551 7.25649 4.32097 7.30762 4.14199 7.40989C3.96667 7.51216 3.8297 7.66009 3.73108 7.85367C3.63247 8.0436 3.58316 8.26641 3.58316 8.52208C3.58316 8.77776 3.63247 9.00239 3.73108 9.19597C3.8297 9.38956 3.96667 9.53931 4.14199 9.64523C4.32097 9.7475 4.52551 9.79864 4.75561 9.79864Z" fill="black" fill-opacity="0.8"/>
<path d="M8.06565 6.62095V8.98778C8.06565 9.24711 8.13322 9.44617 8.26836 9.58497C8.40351 9.72011 8.59344 9.78768 8.83816 9.78768C9.08653 9.78768 9.27828 9.72011 9.41343 9.58497C9.54857 9.44617 9.61614 9.24711 9.61614 8.98778V6.62095H10.3886V8.9823C10.3886 9.30737 10.3174 9.58314 10.175 9.8096C10.0362 10.0324 9.84808 10.2004 9.61066 10.3136C9.3769 10.4269 9.11575 10.4835 8.8272 10.4835C8.5423 10.4835 8.28297 10.4269 8.04921 10.3136C7.81911 10.2004 7.63648 10.0324 7.50134 9.8096C7.36619 9.58314 7.29862 9.30737 7.29862 8.9823V6.62095H8.06565Z" fill="white"/>
<path d="M8.06565 6.62095V8.98778C8.06565 9.24711 8.13322 9.44617 8.26836 9.58497C8.40351 9.72011 8.59344 9.78768 8.83816 9.78768C9.08653 9.78768 9.27828 9.72011 9.41343 9.58497C9.54857 9.44617 9.61614 9.24711 9.61614 8.98778V6.62095H10.3886V8.9823C10.3886 9.30737 10.3174 9.58314 10.175 9.8096C10.0362 10.0324 9.84808 10.2004 9.61066 10.3136C9.3769 10.4269 9.11575 10.4835 8.8272 10.4835C8.5423 10.4835 8.28297 10.4269 8.04921 10.3136C7.81911 10.2004 7.63648 10.0324 7.50134 9.8096C7.36619 9.58314 7.29862 9.30737 7.29862 8.9823V6.62095H8.06565Z" fill="black" fill-opacity="0.8"/>
<path d="M13.1295 10.4451L12.2858 8.95491H11.9242V10.4451H11.1571V6.62095H12.5926C12.8884 6.62095 13.1404 6.67391 13.3486 6.77983C13.5568 6.8821 13.7121 7.02273 13.8143 7.2017C13.9203 7.37702 13.9732 7.57426 13.9732 7.79341C13.9732 8.04543 13.9002 8.27371 13.7541 8.47825C13.608 8.67914 13.3906 8.81794 13.1021 8.89464L14.0171 10.4451H13.1295ZM11.9242 8.37964H12.5652C12.7734 8.37964 12.9286 8.33033 13.0309 8.23171C13.1331 8.12944 13.1843 7.98882 13.1843 7.80984C13.1843 7.63452 13.1331 7.49938 13.0309 7.40441C12.9286 7.3058 12.7734 7.25649 12.5652 7.25649H11.9242V8.37964Z" fill="white"/>
<path d="M13.1295 10.4451L12.2858 8.95491H11.9242V10.4451H11.1571V6.62095H12.5926C12.8884 6.62095 13.1404 6.67391 13.3486 6.77983C13.5568 6.8821 13.7121 7.02273 13.8143 7.2017C13.9203 7.37702 13.9732 7.57426 13.9732 7.79341C13.9732 8.04543 13.9002 8.27371 13.7541 8.47825C13.608 8.67914 13.3906 8.81794 13.1021 8.89464L14.0171 10.4451H13.1295ZM11.9242 8.37964H12.5652C12.7734 8.37964 12.9286 8.33033 13.0309 8.23171C13.1331 8.12944 13.1843 7.98882 13.1843 7.80984C13.1843 7.63452 13.1331 7.49938 13.0309 7.40441C12.9286 7.3058 12.7734 7.25649 12.5652 7.25649H11.9242V8.37964Z" fill="black" fill-opacity="0.8"/>
<path d="M1.38467 12.5814C1.78645 12.5814 2.13892 12.6599 2.44208 12.817C2.74889 12.974 2.98447 13.1987 3.14884 13.4909C3.31685 13.7794 3.40086 14.1155 3.40086 14.499C3.40086 14.8825 3.31685 15.2185 3.14884 15.5071C2.98447 15.792 2.74889 16.0129 2.44208 16.17C2.13892 16.3271 1.78645 16.4056 1.38467 16.4056H0.0478516V12.5814H1.38467ZM1.35728 15.7536C1.75906 15.7536 2.06952 15.644 2.28867 15.4249C2.50782 15.2057 2.6174 14.8971 2.6174 14.499C2.6174 14.1008 2.50782 13.7904 2.28867 13.5676C2.06952 13.3411 1.75906 13.2279 1.35728 13.2279H0.81488V15.7536H1.35728Z" fill="white"/>
<path d="M1.38467 12.5814C1.78645 12.5814 2.13892 12.6599 2.44208 12.817C2.74889 12.974 2.98447 13.1987 3.14884 13.4909C3.31685 13.7794 3.40086 14.1155 3.40086 14.499C3.40086 14.8825 3.31685 15.2185 3.14884 15.5071C2.98447 15.792 2.74889 16.0129 2.44208 16.17C2.13892 16.3271 1.78645 16.4056 1.38467 16.4056H0.0478516V12.5814H1.38467ZM1.35728 15.7536C1.75906 15.7536 2.06952 15.644 2.28867 15.4249C2.50782 15.2057 2.6174 14.8971 2.6174 14.499C2.6174 14.1008 2.50782 13.7904 2.28867 13.5676C2.06952 13.3411 1.75906 13.2279 1.35728 13.2279H0.81488V15.7536H1.35728Z" fill="black" fill-opacity="0.8"/>
<path d="M4.76944 12.5814V16.4056H4.00241V12.5814H4.76944Z" fill="white"/>
<path d="M4.76944 12.5814V16.4056H4.00241V12.5814H4.76944Z" fill="black" fill-opacity="0.8"/>
<path d="M8.21734 13.7319C8.12968 13.5712 8.00915 13.4489 7.85574 13.3649C7.70234 13.2809 7.52337 13.2389 7.31883 13.2389C7.09237 13.2389 6.89148 13.29 6.71616 13.3923C6.54084 13.4945 6.40387 13.6406 6.30525 13.8306C6.20663 14.0205 6.15733 14.2396 6.15733 14.488C6.15733 14.7437 6.20663 14.9665 6.30525 15.1564C6.40752 15.3464 6.54814 15.4925 6.72712 15.5947C6.90609 15.697 7.11428 15.7481 7.3517 15.7481C7.6439 15.7481 7.88314 15.6714 8.06942 15.518C8.2557 15.361 8.37806 15.1436 8.4365 14.866H7.12159V14.2798H9.19257V14.9482C9.14143 15.2149 9.03185 15.4614 8.86384 15.6879C8.69582 15.9143 8.4785 16.0969 8.21187 16.2357C7.94888 16.3709 7.65303 16.4385 7.3243 16.4385C6.9554 16.4385 6.6212 16.3563 6.32169 16.1919C6.02584 16.0239 5.79207 15.792 5.62041 15.4961C5.45239 15.2003 5.36838 14.8642 5.36838 14.488C5.36838 14.1118 5.45239 13.7758 5.62041 13.4799C5.79207 13.1804 6.02584 12.9485 6.32169 12.7841C6.6212 12.6161 6.95357 12.5321 7.31883 12.5321C7.74982 12.5321 8.1242 12.638 8.44197 12.8499C8.75974 13.0581 8.97889 13.3521 9.09943 13.7319H8.21734Z" fill="white"/>
<path d="M8.21734 13.7319C8.12968 13.5712 8.00915 13.4489 7.85574 13.3649C7.70234 13.2809 7.52337 13.2389 7.31883 13.2389C7.09237 13.2389 6.89148 13.29 6.71616 13.3923C6.54084 13.4945 6.40387 13.6406 6.30525 13.8306C6.20663 14.0205 6.15733 14.2396 6.15733 14.488C6.15733 14.7437 6.20663 14.9665 6.30525 15.1564C6.40752 15.3464 6.54814 15.4925 6.72712 15.5947C6.90609 15.697 7.11428 15.7481 7.3517 15.7481C7.6439 15.7481 7.88314 15.6714 8.06942 15.518C8.2557 15.361 8.37806 15.1436 8.4365 14.866H7.12159V14.2798H9.19257V14.9482C9.14143 15.2149 9.03185 15.4614 8.86384 15.6879C8.69582 15.9143 8.4785 16.0969 8.21187 16.2357C7.94888 16.3709 7.65303 16.4385 7.3243 16.4385C6.9554 16.4385 6.6212 16.3563 6.32169 16.1919C6.02584 16.0239 5.79207 15.792 5.62041 15.4961C5.45239 15.2003 5.36838 14.8642 5.36838 14.488C5.36838 14.1118 5.45239 13.7758 5.62041 13.4799C5.79207 13.1804 6.02584 12.9485 6.32169 12.7841C6.6212 12.6161 6.95357 12.5321 7.31883 12.5321C7.74982 12.5321 8.1242 12.638 8.44197 12.8499C8.75974 13.0581 8.97889 13.3521 9.09943 13.7319H8.21734Z" fill="black" fill-opacity="0.8"/>
<path d="M10.5545 12.5814V16.4056H9.78744V12.5814H10.5545Z" fill="white"/>
<path d="M10.5545 12.5814V16.4056H9.78744V12.5814H10.5545Z" fill="black" fill-opacity="0.8"/>
<path d="M13.9421 12.5814V13.2005H12.9231V16.4056H12.156V13.2005H11.137V12.5814H13.9421Z" fill="white"/>
<path d="M13.9421 12.5814V13.2005H12.9231V16.4056H12.156V13.2005H11.137V12.5814H13.9421Z" fill="black" fill-opacity="0.8"/>
<path d="M15.8495 16.4439C15.5829 16.4439 15.3418 16.3983 15.1263 16.307C14.9145 16.2157 14.7465 16.0842 14.6223 15.9125C14.4981 15.7408 14.4342 15.5381 14.4305 15.3043H15.2523C15.2633 15.4614 15.3181 15.5856 15.4167 15.6769C15.519 15.7682 15.6578 15.8139 15.8331 15.8139C16.0121 15.8139 16.1527 15.7719 16.255 15.6879C16.3572 15.6002 16.4084 15.487 16.4084 15.3482C16.4084 15.235 16.3737 15.1418 16.3043 15.0688C16.2349 14.9957 16.1472 14.9391 16.0413 14.8989C15.939 14.8551 15.7966 14.8076 15.6139 14.7565C15.3656 14.6834 15.1629 14.6122 15.0058 14.5428C14.8524 14.4697 14.7191 14.362 14.6059 14.2196C14.4963 14.0735 14.4415 13.8799 14.4415 13.6388C14.4415 13.4123 14.4981 13.2151 14.6113 13.0471C14.7246 12.8791 14.8834 12.7512 15.088 12.6636C15.2925 12.5723 15.5263 12.5266 15.7893 12.5266C16.1837 12.5266 16.5033 12.6234 16.7481 12.817C16.9964 13.0069 17.1334 13.2736 17.159 13.6169H16.3152C16.3079 13.4854 16.2513 13.3776 16.1454 13.2936C16.0431 13.206 15.9061 13.1621 15.7345 13.1621C15.5847 13.1621 15.4642 13.2005 15.3729 13.2772C15.2852 13.3539 15.2414 13.4653 15.2414 13.6114C15.2414 13.7137 15.2743 13.7995 15.34 13.8689C15.4094 13.9347 15.4934 13.9894 15.592 14.0333C15.6943 14.0735 15.8367 14.1209 16.0194 14.1757C16.2677 14.2488 16.4705 14.3218 16.6275 14.3949C16.7846 14.4679 16.9197 14.5775 17.0329 14.7236C17.1462 14.8697 17.2028 15.0615 17.2028 15.2989C17.2028 15.5034 17.1498 15.6933 17.0439 15.8687C16.938 16.044 16.7827 16.1846 16.5782 16.2905C16.3737 16.3928 16.1308 16.4439 15.8495 16.4439Z" fill="white"/>
<path d="M15.8495 16.4439C15.5829 16.4439 15.3418 16.3983 15.1263 16.307C14.9145 16.2157 14.7465 16.0842 14.6223 15.9125C14.4981 15.7408 14.4342 15.5381 14.4305 15.3043H15.2523C15.2633 15.4614 15.3181 15.5856 15.4167 15.6769C15.519 15.7682 15.6578 15.8139 15.8331 15.8139C16.0121 15.8139 16.1527 15.7719 16.255 15.6879C16.3572 15.6002 16.4084 15.487 16.4084 15.3482C16.4084 15.235 16.3737 15.1418 16.3043 15.0688C16.2349 14.9957 16.1472 14.9391 16.0413 14.8989C15.939 14.8551 15.7966 14.8076 15.6139 14.7565C15.3656 14.6834 15.1629 14.6122 15.0058 14.5428C14.8524 14.4697 14.7191 14.362 14.6059 14.2196C14.4963 14.0735 14.4415 13.8799 14.4415 13.6388C14.4415 13.4123 14.4981 13.2151 14.6113 13.0471C14.7246 12.8791 14.8834 12.7512 15.088 12.6636C15.2925 12.5723 15.5263 12.5266 15.7893 12.5266C16.1837 12.5266 16.5033 12.6234 16.7481 12.817C16.9964 13.0069 17.1334 13.2736 17.159 13.6169H16.3152C16.3079 13.4854 16.2513 13.3776 16.1454 13.2936C16.0431 13.206 15.9061 13.1621 15.7345 13.1621C15.5847 13.1621 15.4642 13.2005 15.3729 13.2772C15.2852 13.3539 15.2414 13.4653 15.2414 13.6114C15.2414 13.7137 15.2743 13.7995 15.34 13.8689C15.4094 13.9347 15.4934 13.9894 15.592 14.0333C15.6943 14.0735 15.8367 14.1209 16.0194 14.1757C16.2677 14.2488 16.4705 14.3218 16.6275 14.3949C16.7846 14.4679 16.9197 14.5775 17.0329 14.7236C17.1462 14.8697 17.2028 15.0615 17.2028 15.2989C17.2028 15.5034 17.1498 15.6933 17.0439 15.8687C16.938 16.044 16.7827 16.1846 16.5782 16.2905C16.3737 16.3928 16.1308 16.4439 15.8495 16.4439Z" fill="black" fill-opacity="0.8"/>
</svg>
