<?xml version="1.0" encoding="UTF-8"?>
<!DOCTYPE svg PUBLIC "-//W3C//DTD SVG 1.1//EN" "http://www.w3.org/Graphics/SVG/1.1/DTD/svg11.dtd">
<!-- Creator: CorelDRAW 2021 (64-Bit) -->
<svg xmlns="http://www.w3.org/2000/svg" xml:space="preserve" width="4.22832in" height="2.80227in" version="1.1" style="shape-rendering:geometricPrecision; text-rendering:geometricPrecision; image-rendering:optimizeQuality; fill-rule:evenodd; clip-rule:evenodd"
viewBox="0 0 4228.32 2802.27"
 xmlns:xlink="http://www.w3.org/1999/xlink"
 xmlns:xodm="http://www.corel.com/coreldraw/odm/2003">
 <defs>
  <style type="text/css">
   <![CDATA[
    .fil4 {fill:#E5E5E5}
    .fil0 {fill:white;fill-rule:nonzero}
    .fil1 {fill:black;fill-rule:nonzero;fill-opacity:0.050980}
    .fil2 {fill:black;fill-rule:nonzero;fill-opacity:0.101961}
    .fil3 {fill:black;fill-rule:nonzero;fill-opacity:0.200000}
   ]]>
  </style>
 </defs>
 <g id="Layer_x0020_1">
  <metadata id="CorelCorpID_0Corel-Layer"/>
  <path class="fil0" d="M503.75 557.48l3220.36 0c101.52,0 183.85,82.33 183.85,183.85l0 1879.28c0,101.52 -82.33,183.85 -183.85,183.85l-3220.36 0.01c-101.52,-0.01 -183.85,-82.34 -183.85,-183.86l-0 -1879.27c0,-101.52 82.33,-183.85 183.86,-183.85z"/>
  <path class="fil1" d="M503.75 557.48l3220.36 0c101.52,0 183.85,82.33 183.85,183.85l0 1879.28c0,101.52 -82.33,183.85 -183.85,183.85l-3220.36 0.01c-101.52,-0.01 -183.85,-82.34 -183.85,-183.86l-0 -1879.27c0,-101.52 82.33,-183.85 183.86,-183.85z"/>
  <path class="fil0" d="M347.44 283.93l3532.37 0c101.52,0 183.85,82.33 183.85,183.85l0 2074.67c0,101.52 -82.33,183.85 -183.85,183.85l-3532.37 0.01c-101.52,-0.01 -183.85,-82.34 -183.85,-183.86l-0 -2074.66c0,-101.52 82.33,-183.85 183.86,-183.85z"/>
  <path class="fil2" d="M347.44 283.93l3532.37 0c101.52,0 183.85,82.33 183.85,183.85l0 2074.67c0,101.52 -82.33,183.85 -183.85,183.85l-3532.37 0.01c-101.52,-0.01 -183.85,-82.34 -183.85,-183.86l-0 -2074.66c0,-101.52 82.33,-183.85 183.86,-183.85z"/>
  <path class="fil0" d="M181.35 2.2l3860.62 0c101.52,0 183.85,82.33 183.85,183.85l0 2270.06c0,101.52 -82.33,183.85 -183.85,183.85l-3860.62 0.01c-101.52,-0.01 -183.85,-82.34 -183.85,-183.86l-0 -2270.05c0,-101.52 82.33,-183.85 183.86,-183.85z"/>
  <path class="fil3" d="M181.35 2.2l3860.62 0c101.52,0 183.85,82.33 183.85,183.85l0 2270.06c0,101.52 -82.33,183.85 -183.85,183.85l-3860.62 0.01c-101.52,-0.01 -183.85,-82.34 -183.85,-183.86l-0 -2270.05c0,-101.52 82.33,-183.85 183.86,-183.85z"/>
  <rect class="fil4" x="289.16" y="252.2" width="989.59" height="197.92" rx="41.67" ry="41.67"/>
  <rect class="fil4" x="289.16" y="1127.2" width="1791.67" height="416.66" rx="35.84" ry="41.67"/>
  <rect class="fil4" x="289.16" y="2064.69" width="208.34" height="312.5" rx="6.25" ry="46.88"/>
  <rect class="fil4" x="539.16" y="2064.69" width="697.92" height="312.5" rx="20.94" ry="46.88"/>
  <rect class="fil4" x="2945.41" y="2064.69" width="989.58" height="312.5" rx="29.69" ry="46.88"/>
  <rect class="fil4" x="2945.41" y="252.2" width="989.58" height="197.92" rx="41.67" ry="41.67"/>
 </g>
</svg>
