<svg width="73" height="45" viewBox="0 0 73 45" fill="none" xmlns="http://www.w3.org/2000/svg">
<path d="M46.5524 5.104H27.1387V39.5193H46.5524V5.104Z" fill="#FF5F00"/>
<path d="M28.3045 22.7532C28.3014 19.4124 29.0687 16.1147 30.5484 13.1098C32.0281 10.1048 34.1814 7.47139 36.8452 5.40881C33.5465 2.85072 29.5847 1.25989 25.4128 0.818136C21.241 0.376379 17.0273 1.10151 13.2534 2.91067C9.47949 4.71984 6.29766 7.54004 4.07159 11.0489C1.84552 14.5578 0.665039 18.6137 0.665039 22.7532C0.665039 26.8927 1.84552 30.9487 4.07159 34.4575C6.29766 37.9664 9.47949 40.7866 13.2534 42.5958C17.0273 44.405 21.241 45.1301 25.4128 44.6883C29.5847 44.2466 33.5465 42.6557 36.8452 40.0976C34.1814 38.0351 32.0282 35.4016 30.5485 32.3967C29.0688 29.3917 28.3014 26.094 28.3045 22.7532V22.7532Z" fill="#EB001B"/>
<path d="M72.1425 22.7527C72.1426 26.8922 70.991 30.9481 68.8193 34.457C66.6476 37.9659 63.5434 40.7861 59.8615 42.5952C56.1796 44.4044 52.0686 45.1296 47.9984 44.6878C43.9282 44.2461 40.0631 42.6553 36.8447 40.0972C39.4414 38.0325 41.5405 35.3986 42.984 32.3941C44.4274 29.3897 45.1774 26.093 45.1774 22.7527C45.1774 19.4125 44.4274 16.1158 42.984 13.1113C41.5405 10.1069 39.4414 7.47298 36.8447 5.40832C40.0631 2.85023 43.9282 1.25939 47.9984 0.817642C52.0686 0.37589 56.1796 1.10105 59.8615 2.91024C63.5434 4.71942 66.6476 7.53962 68.8193 11.0485C70.991 14.5574 72.1426 18.6133 72.1425 22.7527V22.7527Z" fill="#F79E1B"/>
<path d="M69.9167 36.8717V36.1398H70.1885V35.9907H69.4961V36.1398H69.7681V36.8717H69.9167ZM71.261 36.8717V35.9893H71.0487L70.8046 36.5962L70.5604 35.9893H70.348V36.8717H70.4979V36.2061L70.7269 36.7799H70.8823L71.1112 36.2046V36.8717H71.261Z" fill="#F79E1B"/>
</svg>
