<svg width="78" height="48" viewBox="0 0 78 48" fill="none" xmlns="http://www.w3.org/2000/svg">
<path d="M49.3359 5.13135H28.3359V42.8689H49.3359V5.13135Z" fill="#FF5F00"/>
<path d="M29.6647 24C29.6614 20.3656 30.485 16.7781 32.0731 13.509C33.6612 10.24 35.9723 7.37507 38.8313 5.13121C35.2908 2.3483 31.0388 0.617653 26.5612 0.137071C22.0836 -0.343511 17.5612 0.445348 13.5108 2.41352C9.46033 4.38169 6.04535 7.44976 3.65617 11.267C1.26698 15.0843 0 19.4967 0 24C0 28.5033 1.26698 32.9157 3.65617 36.733C6.04535 40.5502 9.46033 43.6183 13.5108 45.5865C17.5612 47.5547 22.0836 48.3435 26.5612 47.8629C31.0388 47.3823 35.2908 45.6517 38.8313 42.8688C35.9723 40.6249 33.6613 37.76 32.0732 34.491C30.485 31.2219 29.6614 27.6344 29.6647 24Z" fill="#EB001B"/>
<path d="M77.6661 24C77.6662 28.5032 76.3994 32.9156 74.0103 36.7329C71.6213 40.5502 68.2064 43.6182 64.1561 45.5864C60.1057 47.5546 55.5833 48.3435 51.1058 47.8629C46.6283 47.3824 42.3763 45.6517 38.8359 42.8688C41.6924 40.6227 44.0017 37.7573 45.5896 34.4888C47.1774 31.2202 48.0025 27.6338 48.0025 24C48.0025 20.3662 47.1774 16.7798 45.5896 13.5112C44.0017 10.2427 41.6924 7.37733 38.8359 5.13121C42.3763 2.34829 46.6283 0.61764 51.1058 0.137064C55.5833 -0.343512 60.1057 0.445383 64.1561 2.41357C68.2064 4.38177 71.6213 7.44983 74.0103 11.2671C76.3994 15.0844 77.6662 19.4968 77.6661 24Z" fill="#F79E1B"/>
<path d="M75.3764 38.8717V38.0991H75.6879V37.9417H74.8945V38.0991H75.2062V38.8717H75.3764ZM76.9167 38.8717V37.9402H76.6735L76.3938 38.5809L76.114 37.9402H75.8707V38.8717H76.0424V38.169L76.3047 38.7749H76.4828L76.7451 38.1675V38.8717H76.9167Z" fill="#F79E1B"/>
</svg>
