<?xml version="1.0" encoding="UTF-8"?>
<!DOCTYPE svg PUBLIC "-//W3C//DTD SVG 1.1//EN" "http://www.w3.org/Graphics/SVG/1.1/DTD/svg11.dtd">
<!-- Creator: CorelDRAW 2021 (64-Bit) -->
<svg xmlns="http://www.w3.org/2000/svg" xml:space="preserve" width="2.2543in" height="0.25in" version="1.1" style="shape-rendering:geometricPrecision; text-rendering:geometricPrecision; image-rendering:optimizeQuality; fill-rule:evenodd; clip-rule:evenodd"
viewBox="0 0 2254.29 250"
 xmlns:xlink="http://www.w3.org/1999/xlink"
 xmlns:xodm="http://www.corel.com/coreldraw/odm/2003">
 <defs>
  <style type="text/css">
   <![CDATA[
    .fil0 {fill:#8D1919;fill-rule:nonzero}
   ]]>
  </style>
 </defs>
 <g id="Layer_x0020_1">
  <metadata id="CorelCorpID_0Corel-Layer"/>
  <g id="_1853548219984">
   <path class="fil0" d="M401.19 0c-4.76,0 -9.17,1.19 -13.21,3.57 -4.05,2.38 -6.8,5.7 -9.29,9.29l-150.59 216.78c-2.43,3.49 -5.24,5.72 -10,5.72l-8.57 0c-4.76,0 -7.57,-2.22 -10,-5.72l-150.59 -216.78c-2.49,-3.59 -5.24,-6.91 -9.29,-9.29 -4.05,-2.38 -8.45,-3.57 -13.22,-3.57 -7.38,0 -13.63,2.56 -18.75,7.68 -5.12,5.12 -7.68,11.37 -7.68,18.75l0 216.57c0,3.85 3.15,7 7,7l1 0c3.85,0 7,-3.15 7,-7l0 -216.57c0,-3.33 1.07,-6.13 3.21,-8.39 2.14,-2.26 4.88,-3.39 8.21,-3.39 4.29,0 7.56,1.83 10,5.36l150.24 217.14c2.56,3.69 5.6,6.91 9.64,9.29 4.05,2.38 8.46,3.57 13.22,3.57l8.57 0c4.76,0 9.17,-1.19 13.21,-3.57 4.05,-2.38 7.09,-5.59 9.65,-9.29l150.24 -216.78c2.56,-3.69 5.72,-5.72 10,-5.72 3.33,0 6.07,1.13 8.22,3.39 2.14,2.26 3.21,5.07 3.21,8.39l0 216.57c0,3.85 3.15,7 7,7l1 0c3.85,0 7,-3.15 7,-7l0 -216.57c0,-7.38 -2.62,-13.63 -7.86,-18.75 -5.24,-5.12 -11.43,-7.68 -18.57,-7.68z"/>
   <path class="fil0" d="M1197.41 0l-355.74 0c-9.04,0 -17.56,1.72 -25.54,5.18 -7.98,3.45 -14.94,8.16 -20.89,14.11 -5.95,5.95 -10.66,12.98 -14.11,21.07 -3.45,8.09 -5.18,16.67 -5.18,25.71 0,9.29 1.72,17.92 5.18,25.89 3.45,7.98 8.16,14.94 14.11,20.89 5.95,5.95 12.92,10.66 20.89,14.11 7.97,3.44 16.49,5.18 25.54,5.18l296.67 0c7.14,0 13.81,1.37 20,4.11 6.19,2.73 11.61,6.43 16.25,11.07 4.64,4.63 8.34,10.12 11.07,16.43 2.74,6.3 4.11,13.03 4.11,20.18 0,7.14 -1.37,13.81 -4.11,20 -2.73,6.19 -6.43,11.61 -11.07,16.25 -4.64,4.64 -10.06,8.33 -16.25,11.07 -6.19,2.74 -12.87,4.11 -20,4.11l-355.38 0c-3.85,0 -7,3.15 -7,7l0 0.64c0,3.85 3.15,7 7,7l355.38 0c9.05,0 17.63,-1.73 25.71,-5.18 8.09,-3.45 15.12,-8.16 21.07,-14.11 5.95,-5.95 10.66,-12.98 14.11,-21.07 3.44,-8.09 5.18,-16.67 5.18,-25.71 0,-9.29 -1.73,-17.92 -5.18,-25.89 -3.45,-7.97 -8.16,-14.94 -14.11,-20.89 -5.95,-5.95 -12.98,-10.66 -21.07,-14.11 -8.09,-3.44 -16.68,-5.18 -25.71,-5.18l-296.67 0c-7.13,0 -13.81,-1.37 -20,-4.11 -6.18,-2.73 -11.61,-6.43 -16.25,-11.07 -4.64,-4.64 -8.28,-10.12 -10.89,-16.43 -2.62,-6.31 -3.93,-13.03 -3.93,-20.18 0,-7.14 1.31,-13.81 3.93,-20 2.62,-6.19 6.25,-11.61 10.89,-16.25 4.64,-4.64 10.06,-8.33 16.25,-11.07 6.19,-2.74 12.86,-4.11 20,-4.11l355.74 0c3.85,0 7,-3.15 7,-7l0 -0.64c0,-3.85 -3.15,-7 -7,-7z"/>
   <path class="fil0" d="M1552.75 7l0 236c0,3.85 3.15,7 7,7l0.64 0c3.85,0 7,-3.15 7,-7l0 -236c0,-3.85 -3.15,-7 -7,-7l-0.64 0c-3.85,0 -7,3.15 -7,7z"/>
   <path class="fil0" d="M2241.74 248.46l-288.16 -230.96c-2.62,-1.91 -5.48,-2.86 -8.57,-2.86 -4.05,0 -7.5,1.37 -10.36,4.11 -2.86,2.74 -4.29,6.13 -4.29,10.18l0 214.07c0,3.85 -3.15,7 -7,7l-0.64 0c-3.85,0 -7,-3.15 -7,-7l0 -214.07c0,-8.1 2.8,-14.94 8.39,-20.54 5.59,-5.6 12.56,-8.39 20.89,-8.39 6.43,0 12.38,2.02 17.85,6.07l288.79 231.47c2.36,1.89 3.23,4.93 2.22,7.78 -1,2.85 -3.58,4.68 -6.6,4.68 -0.39,0 -0.77,0 -1.16,0 -1.66,0 -3.08,-0.5 -4.38,-1.54z"/>
  </g>
 </g>
</svg>
