<svg width="62" height="20" viewBox="0 0 62 20" fill="none" xmlns="http://www.w3.org/2000/svg">
<g clip-path="url(#clip0_551:3482)">
<path d="M40.0724 0.0307617C35.7073 0.0307617 31.8065 2.29548 31.8065 6.47972C31.8065 11.2783 38.7248 11.6097 38.7248 14.0203C38.7248 15.0354 37.5627 15.944 35.5779 15.944C32.7611 15.944 30.6558 14.6744 30.6558 14.6744L29.755 18.8967C29.755 18.8967 32.1803 19.9692 35.4002 19.9692C40.1726 19.9692 43.9279 17.5932 43.9279 13.3375C43.9279 8.26694 36.9808 7.94535 36.9808 5.70787C36.9808 4.91274 37.9348 4.04153 39.9139 4.04153C42.1469 4.04153 43.9688 4.96487 43.9688 4.96487L44.8504 0.886776C44.8504 0.886776 42.868 0.0307617 40.0724 0.0307617V0.0307617ZM0.13597 0.338543L0.0302734 0.954103C0.0302734 0.954103 1.86668 1.29052 3.52066 1.9616C5.6503 2.73113 5.802 3.17912 6.16067 4.57052L10.069 19.6518H15.3082L23.3796 0.338543H18.1524L12.9661 13.4697L10.8497 2.33912C10.6557 1.06523 9.67256 0.338543 8.46918 0.338543H0.13597V0.338543ZM25.4815 0.338543L21.381 19.6518H26.3655L30.4516 0.338543H25.4815V0.338543ZM53.2821 0.338543C52.0801 0.338543 51.4433 0.982675 50.976 2.10828L43.6733 19.6518H48.9005L49.9118 16.7279H56.28L56.895 19.6518H61.5072L57.4835 0.338543H53.2821V0.338543ZM53.9619 5.55638L55.5113 12.8037H51.3603L53.9619 5.55638V5.55638Z" fill="white"/>
<path d="M40.0724 0.0307617C35.7073 0.0307617 31.8065 2.29548 31.8065 6.47972C31.8065 11.2783 38.7248 11.6097 38.7248 14.0203C38.7248 15.0354 37.5627 15.944 35.5779 15.944C32.7611 15.944 30.6558 14.6744 30.6558 14.6744L29.755 18.8967C29.755 18.8967 32.1803 19.9692 35.4002 19.9692C40.1726 19.9692 43.9279 17.5932 43.9279 13.3375C43.9279 8.26694 36.9808 7.94535 36.9808 5.70787C36.9808 4.91274 37.9348 4.04153 39.9139 4.04153C42.1469 4.04153 43.9688 4.96487 43.9688 4.96487L44.8504 0.886776C44.8504 0.886776 42.868 0.0307617 40.0724 0.0307617V0.0307617ZM0.13597 0.338543L0.0302734 0.954103C0.0302734 0.954103 1.86668 1.29052 3.52066 1.9616C5.6503 2.73113 5.802 3.17912 6.16067 4.57052L10.069 19.6518H15.3082L23.3796 0.338543H18.1524L12.9661 13.4697L10.8497 2.33912C10.6557 1.06523 9.67256 0.338543 8.46918 0.338543H0.13597V0.338543ZM25.4815 0.338543L21.381 19.6518H26.3655L30.4516 0.338543H25.4815V0.338543ZM53.2821 0.338543C52.0801 0.338543 51.4433 0.982675 50.976 2.10828L43.6733 19.6518H48.9005L49.9118 16.7279H56.28L56.895 19.6518H61.5072L57.4835 0.338543H53.2821V0.338543ZM53.9619 5.55638L55.5113 12.8037H51.3603L53.9619 5.55638V5.55638Z" fill="black" fill-opacity="0.8"/>
</g>
<defs>
<clipPath id="clip0_551:3482">
<rect width="61.5385" height="20" fill="white"/>
</clipPath>
</defs>
</svg>
