<svg width="152" height="30" viewBox="0 0 152 30" fill="none" xmlns="http://www.w3.org/2000/svg">
<path fill-rule="evenodd" clip-rule="evenodd" d="M64.4296 0.267061C60.7701 0.868944 58.185 3.20731 57.8741 6.19633C57.5327 9.48031 59.1697 11.4426 65.2891 15.0844C69.8821 17.8178 71.524 19.098 72.1915 20.4659C74.2707 24.7288 69.5405 29.4463 64.2704 28.3659C61.4654 27.7907 59.92 26.6151 58.4203 23.9159L57.5736 22.3918L57.5707 24.6463C57.5677 27.3659 57.8122 27.7847 60.002 28.8091C63.7107 30.5437 68.2394 30.3706 71.6185 28.3647C74.1467 26.8641 75.4494 24.3375 75.2327 21.3543C74.9755 17.812 73.0632 15.7681 66.4276 11.9434C60.7476 8.66928 59.2429 5.69832 61.9558 3.11446C63.7743 1.38243 66.8335 0.932486 69.0552 2.07037C70.0761 2.593 71.3601 3.8589 72.302 5.27135L72.9246 6.205V4.63781C72.9246 3.14471 72.8842 3.03169 72.0686 2.24575C71.0095 1.22463 69.6336 0.548893 67.9819 0.237987C66.5488 -0.0316534 66.2292 -0.0290742 64.4296 0.267061ZM89.7164 0.357332C80.3549 2.03895 75.4357 13.3774 80.1801 22.3377C81.806 25.4083 85.0037 28.2062 88.173 29.3312C90.1575 30.0356 94.0082 30.1999 96.0605 29.6679C101.07 28.3694 104.95 24.4355 106.377 19.2078C106.936 17.1634 106.936 12.859 106.378 10.7856C104.884 5.23125 100.761 1.28302 95.4781 0.349125C93.1908 -0.0553348 92.005 -0.0536936 89.7164 0.357332ZM111.491 14.713L111.552 29.4259L119.053 29.4878L126.554 29.5497V28.7258V27.9019H120.648H114.741V13.9509V0H113.086H111.43L111.491 14.713ZM134.841 0.34256C130.697 1.1217 127.025 3.9344 125.186 7.7375C121.106 16.1772 124.745 26.0437 133.116 29.2367C135.242 30.0478 138.953 30.2463 141.183 29.6684C148.355 27.809 152.836 20.8256 151.869 13.0145C151.253 8.03527 148.95 4.28751 145.1 1.99815C142.269 0.314893 138.351 -0.317472 134.841 0.34256ZM2.87572 1.63097C0.0345473 2.59722 -0.339677 2.78034 0.221659 2.92829C0.580999 3.02325 1.08611 3.36698 1.34386 3.69219C1.79723 4.2643 1.81258 4.67017 1.81258 16.1083C1.81258 24.3553 1.73273 28.0876 1.54869 28.4449C1.40363 28.7265 1.05799 29.1392 0.780868 29.3622C0.297732 29.7507 0.410189 29.7673 3.52541 29.7725L6.77388 29.7776V15.1233C6.77388 3.54635 6.71198 0.472925 6.47857 0.487462C6.31626 0.497545 4.69486 1.01221 2.87572 1.63097ZM16.3582 1.51092C19.4245 3.00004 20.2292 3.94143 22.0802 8.20644C22.2751 8.65568 22.3382 7.82097 22.3505 4.63078L22.3665 0.468939L18.2912 0.469643L14.2158 0.470581L16.3582 1.51092ZM31.3101 1.01197C27.6156 2.26193 25.9103 4.567 25.9103 8.31148C25.9103 10.5207 26.4242 11.9502 27.6782 13.2311C29.3452 14.9331 31.5804 15.8478 37.1765 17.1179C38.96 17.5226 40.7503 17.9911 41.1552 18.159C42.0244 18.5194 43.5392 19.7939 43.9052 20.4727C44.316 21.2345 44.5929 24.383 44.3333 25.3401C43.8183 27.2386 41.8122 28.9411 39.4948 29.4463C39.105 29.5315 38.9075 29.6456 39.0556 29.7003C39.204 29.7549 40.0444 29.6341 40.923 29.432C45.3697 28.4086 47.9539 25.3105 47.9687 20.985C47.9768 18.6143 47.3528 17.0978 45.7614 15.6204C43.8242 13.822 42.1182 13.1477 36.7907 12.0754C31.9938 11.1096 29.4666 9.64327 29.0806 7.60197C28.9925 7.13515 28.9785 6.11426 29.0499 5.33325C29.2299 3.36347 30.0639 2.22816 32.0623 1.23284C33.8399 0.34725 33.5375 0.25862 31.3101 1.01197ZM39.0398 0.907866C42.3854 2.04106 44.7992 4.25914 45.7732 7.09575L46.195 8.32367L46.2115 4.39631L46.228 0.468939L42.0345 0.485352L37.8411 0.501765L39.0398 0.907866ZM96.8557 2.41222C98.7866 3.28586 100.833 5.38366 101.872 7.55461C103.998 11.9973 103.942 18.1939 101.737 22.5285C100.883 24.2092 98.8374 26.4543 97.4027 27.2871C95.1899 28.5715 92.5075 28.9197 90.1549 28.228C88.3381 27.6939 87.1259 26.9277 85.6231 25.3642C83.1713 22.813 81.8884 19.2896 81.8847 15.0966C81.8788 8.57995 84.5964 3.81271 89.3037 2.08209C91.1642 1.39814 94.983 1.56508 96.8557 2.41222ZM142.164 2.52219C145.711 4.2235 147.99 8.04629 148.52 13.1849C148.899 16.8516 148.039 20.8512 146.288 23.5642C145.148 25.3314 142.87 27.304 141.269 27.9115C133.949 30.6874 127.026 24.4472 127.026 15.0733C127.026 8.59378 129.764 3.78715 134.418 2.09757C135.396 1.74258 136.161 1.66333 138.13 1.71374C140.363 1.77095 140.766 1.85161 142.164 2.52219ZM15.2579 10.2545C14.3951 12.5066 13.7991 13.1563 11.8899 13.9263L10.5719 14.4581L11.8247 14.9737C13.3601 15.6051 14.1816 16.4279 15.0569 18.211L15.7278 19.5782L15.7397 14.5957C15.7463 11.8555 15.6957 9.61326 15.6274 9.61326C15.5594 9.61326 15.3931 9.90189 15.2579 10.2545ZM25.9337 25.1469L25.9103 29.7776L30.9307 29.7603L35.9511 29.7427L34.3504 29.1875C30.3041 27.7837 27.3834 24.9966 26.2597 21.4666C25.9902 20.6202 25.9545 21.0237 25.9337 25.1469ZM22.5033 21.672C22.2456 23.035 20.7399 25.7276 19.6059 26.8531C18.4603 27.9903 17.0083 28.825 15.275 29.3436C14.2782 29.6417 14.4587 29.6642 18.342 29.7249C20.6114 29.7603 22.6047 29.7371 22.7717 29.6735C23.0039 29.5851 23.0753 28.5359 23.0753 25.2128C23.0753 21.1501 22.8572 19.8 22.5033 21.672Z" fill="white"/>
<path fill-rule="evenodd" clip-rule="evenodd" d="M64.4296 0.267061C60.7701 0.868944 58.185 3.20731 57.8741 6.19633C57.5327 9.48031 59.1697 11.4426 65.2891 15.0844C69.8821 17.8178 71.524 19.098 72.1915 20.4659C74.2707 24.7288 69.5405 29.4463 64.2704 28.3659C61.4654 27.7907 59.92 26.6151 58.4203 23.9159L57.5736 22.3918L57.5707 24.6463C57.5677 27.3659 57.8122 27.7847 60.002 28.8091C63.7107 30.5437 68.2394 30.3706 71.6185 28.3647C74.1467 26.8641 75.4494 24.3375 75.2327 21.3543C74.9755 17.812 73.0632 15.7681 66.4276 11.9434C60.7476 8.66928 59.2429 5.69832 61.9558 3.11446C63.7743 1.38243 66.8335 0.932486 69.0552 2.07037C70.0761 2.593 71.3601 3.8589 72.302 5.27135L72.9246 6.205V4.63781C72.9246 3.14471 72.8842 3.03169 72.0686 2.24575C71.0095 1.22463 69.6336 0.548893 67.9819 0.237987C66.5488 -0.0316534 66.2292 -0.0290742 64.4296 0.267061ZM89.7164 0.357332C80.3549 2.03895 75.4357 13.3774 80.1801 22.3377C81.806 25.4083 85.0037 28.2062 88.173 29.3312C90.1575 30.0356 94.0082 30.1999 96.0605 29.6679C101.07 28.3694 104.95 24.4355 106.377 19.2078C106.936 17.1634 106.936 12.859 106.378 10.7856C104.884 5.23125 100.761 1.28302 95.4781 0.349125C93.1908 -0.0553348 92.005 -0.0536936 89.7164 0.357332ZM111.491 14.713L111.552 29.4259L119.053 29.4878L126.554 29.5497V28.7258V27.9019H120.648H114.741V13.9509V0H113.086H111.43L111.491 14.713ZM134.841 0.34256C130.697 1.1217 127.025 3.9344 125.186 7.7375C121.106 16.1772 124.745 26.0437 133.116 29.2367C135.242 30.0478 138.953 30.2463 141.183 29.6684C148.355 27.809 152.836 20.8256 151.869 13.0145C151.253 8.03527 148.95 4.28751 145.1 1.99815C142.269 0.314893 138.351 -0.317472 134.841 0.34256ZM2.87572 1.63097C0.0345473 2.59722 -0.339677 2.78034 0.221659 2.92829C0.580999 3.02325 1.08611 3.36698 1.34386 3.69219C1.79723 4.2643 1.81258 4.67017 1.81258 16.1083C1.81258 24.3553 1.73273 28.0876 1.54869 28.4449C1.40363 28.7265 1.05799 29.1392 0.780868 29.3622C0.297732 29.7507 0.410189 29.7673 3.52541 29.7725L6.77388 29.7776V15.1233C6.77388 3.54635 6.71198 0.472925 6.47857 0.487462C6.31626 0.497545 4.69486 1.01221 2.87572 1.63097ZM16.3582 1.51092C19.4245 3.00004 20.2292 3.94143 22.0802 8.20644C22.2751 8.65568 22.3382 7.82097 22.3505 4.63078L22.3665 0.468939L18.2912 0.469643L14.2158 0.470581L16.3582 1.51092ZM31.3101 1.01197C27.6156 2.26193 25.9103 4.567 25.9103 8.31148C25.9103 10.5207 26.4242 11.9502 27.6782 13.2311C29.3452 14.9331 31.5804 15.8478 37.1765 17.1179C38.96 17.5226 40.7503 17.9911 41.1552 18.159C42.0244 18.5194 43.5392 19.7939 43.9052 20.4727C44.316 21.2345 44.5929 24.383 44.3333 25.3401C43.8183 27.2386 41.8122 28.9411 39.4948 29.4463C39.105 29.5315 38.9075 29.6456 39.0556 29.7003C39.204 29.7549 40.0444 29.6341 40.923 29.432C45.3697 28.4086 47.9539 25.3105 47.9687 20.985C47.9768 18.6143 47.3528 17.0978 45.7614 15.6204C43.8242 13.822 42.1182 13.1477 36.7907 12.0754C31.9938 11.1096 29.4666 9.64327 29.0806 7.60197C28.9925 7.13515 28.9785 6.11426 29.0499 5.33325C29.2299 3.36347 30.0639 2.22816 32.0623 1.23284C33.8399 0.34725 33.5375 0.25862 31.3101 1.01197ZM39.0398 0.907866C42.3854 2.04106 44.7992 4.25914 45.7732 7.09575L46.195 8.32367L46.2115 4.39631L46.228 0.468939L42.0345 0.485352L37.8411 0.501765L39.0398 0.907866ZM96.8557 2.41222C98.7866 3.28586 100.833 5.38366 101.872 7.55461C103.998 11.9973 103.942 18.1939 101.737 22.5285C100.883 24.2092 98.8374 26.4543 97.4027 27.2871C95.1899 28.5715 92.5075 28.9197 90.1549 28.228C88.3381 27.6939 87.1259 26.9277 85.6231 25.3642C83.1713 22.813 81.8884 19.2896 81.8847 15.0966C81.8788 8.57995 84.5964 3.81271 89.3037 2.08209C91.1642 1.39814 94.983 1.56508 96.8557 2.41222ZM142.164 2.52219C145.711 4.2235 147.99 8.04629 148.52 13.1849C148.899 16.8516 148.039 20.8512 146.288 23.5642C145.148 25.3314 142.87 27.304 141.269 27.9115C133.949 30.6874 127.026 24.4472 127.026 15.0733C127.026 8.59378 129.764 3.78715 134.418 2.09757C135.396 1.74258 136.161 1.66333 138.13 1.71374C140.363 1.77095 140.766 1.85161 142.164 2.52219ZM15.2579 10.2545C14.3951 12.5066 13.7991 13.1563 11.8899 13.9263L10.5719 14.4581L11.8247 14.9737C13.3601 15.6051 14.1816 16.4279 15.0569 18.211L15.7278 19.5782L15.7397 14.5957C15.7463 11.8555 15.6957 9.61326 15.6274 9.61326C15.5594 9.61326 15.3931 9.90189 15.2579 10.2545ZM25.9337 25.1469L25.9103 29.7776L30.9307 29.7603L35.9511 29.7427L34.3504 29.1875C30.3041 27.7837 27.3834 24.9966 26.2597 21.4666C25.9902 20.6202 25.9545 21.0237 25.9337 25.1469ZM22.5033 21.672C22.2456 23.035 20.7399 25.7276 19.6059 26.8531C18.4603 27.9903 17.0083 28.825 15.275 29.3436C14.2782 29.6417 14.4587 29.6642 18.342 29.7249C20.6114 29.7603 22.6047 29.7371 22.7717 29.6735C23.0039 29.5851 23.0753 28.5359 23.0753 25.2128C23.0753 21.1501 22.8572 19.8 22.5033 21.672Z" fill="#8D1919"/>
</svg>
