<svg width="48" height="30" viewBox="0 0 48 30" fill="none" xmlns="http://www.w3.org/2000/svg">
<path fill-rule="evenodd" clip-rule="evenodd" d="M2.87759 1.18944C0.0345696 2.17848 -0.339897 2.36592 0.221803 2.51736C0.581377 2.61456 1.08681 2.9664 1.34473 3.29928C1.79839 3.88488 1.81376 4.30032 1.81376 16.0082C1.81376 24.4498 1.73386 28.2701 1.5497 28.6358C1.40454 28.9241 1.05868 29.3465 0.781376 29.5747C0.297926 29.9724 0.410456 29.9894 3.5277 29.9947L6.77829 30V15C6.77829 3.15 6.71635 0.00408001 6.48278 0.01896C6.32037 0.02928 4.69791 0.55608 2.87759 1.18944ZM16.3688 1.06656C19.4371 2.5908 20.2423 3.5544 22.0946 7.92C22.2896 8.37984 22.3527 7.52544 22.365 4.26L22.3811 0L18.3031 0.00072L14.2251 0.00168L16.3688 1.06656ZM31.3305 0.55584C27.6335 1.83528 25.9272 4.19472 25.9272 8.02752C25.9272 10.2888 26.4414 11.7521 27.6962 13.0632C29.3643 14.8054 31.6009 15.7416 37.2007 17.0417C38.9853 17.4559 40.7768 17.9354 41.182 18.1073C42.0517 18.4762 43.5675 19.7808 43.9337 20.4756C44.3448 21.2554 44.6219 24.4781 44.3621 25.4578C43.8467 27.401 41.8394 29.1437 39.5205 29.6609C39.1304 29.748 38.9328 29.8649 39.081 29.9208C39.2295 29.9767 40.0704 29.8531 40.9496 29.6462C45.3992 28.5986 47.985 25.4275 47.9999 21C48.008 18.5734 47.3836 17.021 45.7912 15.5088C43.8527 13.668 42.1456 12.9778 36.8146 11.8802C32.0146 10.8917 29.4858 9.39072 29.0995 7.30128C29.0113 6.82344 28.9974 5.77848 29.0688 4.97904C29.2489 2.9628 30.0834 1.80072 32.0832 0.78192C33.8619 -0.12456 33.5593 -0.21528 31.3305 0.55584ZM39.0652 0.44928C42.4129 1.6092 44.8283 3.8796 45.803 6.78312L46.225 8.04L46.2415 4.02L46.2581 0L42.0619 0.0168L37.8657 0.0336L39.0652 0.44928ZM15.2679 10.0164C14.4045 12.3216 13.8081 12.9866 11.8977 13.7748L10.5787 14.3191L11.8324 14.8469C13.3688 15.4932 14.1908 16.3354 15.0667 18.1606L15.7381 19.56L15.7499 14.46C15.7565 11.6551 15.7059 9.36 15.6376 9.36C15.5695 9.36 15.4031 9.65544 15.2679 10.0164ZM25.9506 25.26L25.9272 30L30.9508 29.9822L35.9744 29.9642L34.3728 29.3959C30.3238 27.959 27.4012 25.1062 26.2768 21.493C26.0071 20.6266 25.9714 21.0396 25.9506 25.26ZM22.518 21.7032C22.26 23.0983 20.7534 25.8545 19.6187 27.0065C18.4723 28.1705 17.0194 29.0249 15.2849 29.5558C14.2875 29.8608 14.4681 29.8838 18.3539 29.946C20.6248 29.9822 22.6194 29.9585 22.7865 29.8934C23.0189 29.803 23.0903 28.729 23.0903 25.3274C23.0903 21.169 22.8721 19.787 22.518 21.7032Z" fill="white"/>
<path fill-rule="evenodd" clip-rule="evenodd" d="M2.87759 1.18944C0.0345696 2.17848 -0.339897 2.36592 0.221803 2.51736C0.581377 2.61456 1.08681 2.9664 1.34473 3.29928C1.79839 3.88488 1.81376 4.30032 1.81376 16.0082C1.81376 24.4498 1.73386 28.2701 1.5497 28.6358C1.40454 28.9241 1.05868 29.3465 0.781376 29.5747C0.297926 29.9724 0.410456 29.9894 3.5277 29.9947L6.77829 30V15C6.77829 3.15 6.71635 0.00408001 6.48278 0.01896C6.32037 0.02928 4.69791 0.55608 2.87759 1.18944ZM16.3688 1.06656C19.4371 2.5908 20.2423 3.5544 22.0946 7.92C22.2896 8.37984 22.3527 7.52544 22.365 4.26L22.3811 0L18.3031 0.00072L14.2251 0.00168L16.3688 1.06656ZM31.3305 0.55584C27.6335 1.83528 25.9272 4.19472 25.9272 8.02752C25.9272 10.2888 26.4414 11.7521 27.6962 13.0632C29.3643 14.8054 31.6009 15.7416 37.2007 17.0417C38.9853 17.4559 40.7768 17.9354 41.182 18.1073C42.0517 18.4762 43.5675 19.7808 43.9337 20.4756C44.3448 21.2554 44.6219 24.4781 44.3621 25.4578C43.8467 27.401 41.8394 29.1437 39.5205 29.6609C39.1304 29.748 38.9328 29.8649 39.081 29.9208C39.2295 29.9767 40.0704 29.8531 40.9496 29.6462C45.3992 28.5986 47.985 25.4275 47.9999 21C48.008 18.5734 47.3836 17.021 45.7912 15.5088C43.8527 13.668 42.1456 12.9778 36.8146 11.8802C32.0146 10.8917 29.4858 9.39072 29.0995 7.30128C29.0113 6.82344 28.9974 5.77848 29.0688 4.97904C29.2489 2.9628 30.0834 1.80072 32.0832 0.78192C33.8619 -0.12456 33.5593 -0.21528 31.3305 0.55584ZM39.0652 0.44928C42.4129 1.6092 44.8283 3.8796 45.803 6.78312L46.225 8.04L46.2415 4.02L46.2581 0L42.0619 0.0168L37.8657 0.0336L39.0652 0.44928ZM15.2679 10.0164C14.4045 12.3216 13.8081 12.9866 11.8977 13.7748L10.5787 14.3191L11.8324 14.8469C13.3688 15.4932 14.1908 16.3354 15.0667 18.1606L15.7381 19.56L15.7499 14.46C15.7565 11.6551 15.7059 9.36 15.6376 9.36C15.5695 9.36 15.4031 9.65544 15.2679 10.0164ZM25.9506 25.26L25.9272 30L30.9508 29.9822L35.9744 29.9642L34.3728 29.3959C30.3238 27.959 27.4012 25.1062 26.2768 21.493C26.0071 20.6266 25.9714 21.0396 25.9506 25.26ZM22.518 21.7032C22.26 23.0983 20.7534 25.8545 19.6187 27.0065C18.4723 28.1705 17.0194 29.0249 15.2849 29.5558C14.2875 29.8608 14.4681 29.8838 18.3539 29.946C20.6248 29.9822 22.6194 29.9585 22.7865 29.8934C23.0189 29.803 23.0903 28.729 23.0903 25.3274C23.0903 21.169 22.8721 19.787 22.518 21.7032Z" fill="#8D1919"/>
</svg>
